<svg width="767" height="556" viewBox="0 0 767 556" fill="none" xmlns="http://www.w3.org/2000/svg">
<g clip-path="url(#clip0_114_2015)">
<path d="M721.923 530.649C726.27 531.403 730.816 530.136 733.852 526.83C735.826 524.671 737.17 522.016 737.17 519.464C737.17 519.43 737.17 519.396 737.17 519.362C737.12 501.051 758.904 502.267 765.888 479.88C772.89 457.492 745.25 455.608 729.455 469.431C718.107 479.366 704.486 465.492 687.979 477.071C673.645 487.125 681.625 511.893 658.132 504.151C650.633 501.667 643.914 504.066 638.24 508.451C631.72 513.503 627.456 520.595 625.698 528.303L627.572 529.673C673.91 559.015 694.798 525.973 721.923 530.649Z" fill="#9C78ED"/>
<path d="M676 529.673L737.452 488.958C738.281 488.41 738.514 487.279 737.983 486.44C737.452 485.584 736.357 485.344 735.544 485.892L669.464 529.69H676V529.673Z" fill="#7846D1"/>
<path d="M672.682 408.521C670.094 368.611 669.663 326.748 672.533 299C676.299 262.738 684.794 237.508 697.801 223.993C698.663 223.102 700.074 223.085 700.936 223.976C701.799 224.866 701.816 226.322 700.953 227.213C678.207 250.851 670.028 314.296 677.245 410.851L672.682 408.521Z" fill="#5B23A9"/>
<path d="M678.506 266.969C678.506 266.969 659.991 266.935 661.301 233.311C661.301 233.328 689.638 241.67 678.506 266.969Z" fill="#7846D1"/>
<path d="M676.946 284.269C676.946 284.269 675.951 265.171 708.535 264.674C708.535 264.657 702.031 294.341 676.946 284.269Z" fill="#7846D1"/>
<path d="M691.115 237.114C691.115 237.114 683.997 219.454 714.557 207.755C714.557 207.755 718.025 237.97 691.115 237.114Z" fill="#7846D1"/>
<path d="M672.782 318.955C672.782 318.955 655.345 325.395 645.573 293.296C645.573 293.296 674.989 291.258 672.782 318.955Z" fill="#7846D1"/>
<path d="M673.794 336.837C673.794 336.837 669.613 318.201 701.617 311.898C701.617 311.881 700.19 342.267 673.794 336.837Z" fill="#7846D1"/>
<path d="M672.815 361.434C672.815 361.434 655.495 368.217 645.142 336.306C645.142 336.306 674.507 333.703 672.815 361.434Z" fill="#7846D1"/>
<path d="M135.313 497.488L130.269 497.283L127.598 497.18L120.016 496.871C120.016 496.871 49.9377 374.041 93.8364 333.994C107.358 321.661 130.983 331.887 125.757 388.566C120.912 441.083 135.313 497.488 135.313 497.488Z" fill="#7846D1"/>
<path d="M130.269 497.283L127.598 497.18C115.371 467.427 109.183 435.448 106.13 413.009C102.497 386.357 102.314 367.018 102.314 366.83C102.314 366.145 102.845 365.579 103.509 365.579C104.172 365.579 104.72 366.127 104.736 366.813C104.736 367.001 104.902 386.22 108.536 412.701C111.605 435.242 117.843 467.461 130.269 497.283Z" fill="#5B23A9"/>
<path d="M149.232 522.085L142.38 524.706L138.747 526.093L128.444 530.033C128.444 530.033 -31.4726 406.226 5.55763 327.451C16.9554 303.196 54.052 303.265 77.6604 382.006C99.5434 455.009 149.232 522.085 149.232 522.085Z" fill="#9C78ED"/>
<path d="M142.381 524.723L138.747 526.11C106.346 493.377 80.8294 454.221 64.6204 425.993C45.3753 392.489 34.7075 366.727 34.608 366.47C34.2264 365.545 34.6412 364.483 35.5371 364.106C36.433 363.712 37.4616 364.141 37.8432 365.066C37.9427 365.323 48.5441 390.896 67.6731 424.211C83.965 452.559 109.697 492.041 142.381 524.723Z" fill="#7846D1"/>
<path d="M695.893 529.091C695.81 526.23 695.495 523.353 694.881 520.492C689.124 493.326 704.769 488.187 725.391 479.606C746.013 471.024 748.468 445.537 733.852 424.348C719.252 403.16 745.482 386.134 735.826 354.24C726.171 322.364 692.608 343.569 685.258 372.962C679.982 394.099 653.155 389.525 643.218 416.932C634.59 440.723 663.508 462.7 630.111 473.611C619.443 477.088 613.537 485.549 610.451 495.433C606.901 506.823 607.598 518.642 611.646 529.074H695.893V529.091Z" fill="#7846D1"/>
<path d="M655.03 529.091L710.045 388.857C710.559 387.521 709.945 386.014 708.651 385.483C707.357 384.952 705.897 385.586 705.383 386.922L649.605 529.108H655.03V529.091Z" fill="#5B23A9"/>
<path d="M196.582 105.119C196.582 105.119 197.743 79.8715 182.861 75.0241C159.701 67.4703 153.247 79.8715 149.68 88.0762C145.101 98.5761 147.059 119.182 160.862 121.169C181.501 124.132 195.304 112.176 196.582 105.119Z" fill="#403657"/>
<path d="M211.497 189.547C223.542 189.547 233.927 180.846 236.399 168.667C238.175 159.914 239.917 152.155 239.917 147.787V147.667C240.033 146.297 240.083 144.91 240.099 143.556C240.265 123.636 228.353 87.2541 186.512 93.0265C186.512 93.0265 151.787 97.1202 147.839 132.149C147.839 132.149 146.196 148.318 145.101 160.017C145.085 160.223 145.068 160.428 145.035 160.634C143.509 176.101 155.288 189.53 170.352 189.53H211.497V189.547Z" fill="#403657"/>
<path d="M261.186 231.187C261.186 231.187 268.585 291.703 277.03 322.775C277.03 322.775 289.041 317.002 304.753 309.157C321.791 300.661 346.295 285.143 346.295 285.143L352.484 300.542C352.484 300.542 289.191 362.205 268.237 365.699C247.266 369.194 234.425 291.703 234.425 291.703L261.186 231.187Z" fill="#7846D1"/>
<path d="M345.001 286.958C345.001 286.958 343.259 278.36 346.992 272.536C350.725 266.712 356.399 255.818 363.052 253.557C368.626 251.656 360.398 261.368 360.165 267.534C360.165 267.534 368.461 266.455 374.433 264.451C379.692 262.687 390.095 260.494 394.923 259.501C396.25 259.227 397.096 260.957 396.084 261.865C394.441 263.338 390.991 265.188 383.89 266.952C383.89 266.952 401.227 263.561 403.019 266.301C404.811 269.042 383.077 272.861 383.077 272.861C383.077 272.861 399.95 271.834 400.397 274.557C400.663 276.219 383.176 280.038 383.176 280.038C383.176 280.038 399.137 280.484 395.271 283.087C394.143 283.841 363.268 287.438 352.517 300.542C352.484 300.559 345.25 292.834 345.001 286.958Z" fill="#FFA681"/>
<path d="M154.475 219.266C154.475 219.266 119.071 230.04 88.5771 237.148C88.5771 237.148 87.7808 223.496 86.9845 205.494C86.1217 185.967 87.6813 156.352 87.6813 156.352L71.6216 158.047C71.6216 158.047 49.1911 244.856 56.1923 265.547C63.1935 286.239 152.053 257.257 152.053 257.257L154.475 219.266Z" fill="#7846D1"/>
<path d="M86.7521 158.39C86.7521 158.39 94.8981 155.872 98.0835 149.723C101.269 143.573 110.062 131.189 104.637 126.599C102.663 124.92 101.219 132.234 96.0926 135.386C96.0926 135.386 93.0566 127.353 91.9284 120.963C90.933 115.345 87.8471 104.845 86.3871 99.9979C85.989 98.6618 84.1142 98.7132 83.8322 100.066C83.3677 102.259 83.4174 106.267 85.2922 113.564C85.2922 113.564 79.9334 96.2124 76.748 95.8869C73.5626 95.5615 80.6468 117.127 80.6468 117.127C80.6468 117.127 73.4963 101.317 70.9579 102.207C69.415 102.773 74.4917 120.45 74.4917 120.45C74.4917 120.45 66.5282 106.164 66.1466 110.909C66.0305 112.296 77.6771 142.049 71.6215 158.047C71.6049 158.047 81.6256 160.942 86.7521 158.39Z" fill="#FFA681"/>
<path d="M259.859 465.663L260.141 466.947C232.567 486.217 129.456 473.062 129.456 473.062C129.639 470.836 129.871 468.489 130.17 466.074C130.485 463.385 130.883 460.593 131.348 457.715C132.592 449.973 134.268 441.58 136.142 432.964C136.74 430.258 137.354 427.5 137.984 424.725C139.842 416.486 141.833 408.144 143.708 400.025C144.355 397.233 144.985 394.476 145.616 391.735C146.478 387.932 147.291 384.181 148.071 380.567C149.083 375.737 149.996 371.112 150.759 366.744C151.273 363.798 151.721 360.989 152.053 358.317C152.451 355.491 152.716 352.818 152.882 350.335C151.24 344.083 149.714 337.951 148.287 332.007C147.573 328.975 146.877 326.029 146.196 323.1C144.073 313.731 142.215 304.824 140.589 296.482C140.008 293.45 139.444 290.504 138.93 287.626C137.121 277.777 135.678 268.87 134.5 261.111C134.052 258.011 133.621 255.116 133.256 252.392C132.841 249.412 132.492 246.654 132.177 244.136C130.8 233.123 130.319 226.871 130.319 226.871C130.568 226.665 130.817 226.477 131.082 226.288C134.218 223.993 139.096 221.835 144.537 219.916C150.278 217.878 156.615 216.114 162.206 214.726C163.052 214.521 163.882 214.315 164.695 214.11C172.044 212.328 177.536 211.301 177.536 211.301C202.538 216.713 209.672 213.236 209.672 213.236L222.38 217.107L223.874 217.655L233.131 221.013L233.513 221.15L250.12 227.179L261.202 231.187L256.905 251.656L255.031 260.597L249.373 287.558L247.515 296.465L241.874 323.323L240.016 332.144L235.354 354.394L236.283 358.642L238.108 366.898L240.995 380.019L243.616 391.889L245.425 400.111L250.866 424.845L252.675 433.015L258.067 457.475L259.859 465.663Z" fill="#9C78ED"/>
<path d="M223.857 217.638C221.202 233.774 213.62 250.012 197.859 251.759C178.83 253.883 168.959 229.234 164.662 214.093C172.011 212.311 179.626 210.581 179.626 210.581C204.628 215.994 209.456 212.688 209.456 212.688L222.347 217.073L223.857 217.638Z" fill="#FFA681"/>
<path d="M195.918 238.21C175.977 238.21 171.198 212.774 171.149 212.517C171.049 211.969 171.398 211.438 171.945 211.335C172.476 211.232 172.99 211.592 173.09 212.14C173.272 213.168 177.801 237.165 197.08 236.137C213.952 235.264 214.948 215.925 214.981 215.103C214.998 214.538 215.462 214.11 216.01 214.127C216.557 214.144 216.972 214.624 216.955 215.189C216.939 215.411 215.86 237.199 197.196 238.176C196.748 238.193 196.333 238.21 195.918 238.21Z" fill="white"/>
<path d="M160.132 231.187C160.132 233.962 157.959 236.206 155.271 236.206C152.584 236.206 150.41 233.962 150.41 231.187C150.41 228.412 152.584 226.168 155.271 226.168C157.959 226.168 160.132 228.412 160.132 231.187Z" fill="#7846D1"/>
<path d="M150.394 255.715C150.394 258.49 148.22 260.734 145.533 260.734C142.845 260.734 140.672 258.49 140.672 255.715C140.672 252.941 142.845 250.697 145.533 250.697C148.204 250.697 150.394 252.941 150.394 255.715Z" fill="#7846D1"/>
<path d="M181.468 267.312C181.468 270.087 179.295 272.33 176.607 272.33C173.919 272.33 171.746 270.087 171.746 267.312C171.746 264.537 173.919 262.293 176.607 262.293C179.295 262.293 181.468 264.537 181.468 267.312Z" fill="#7846D1"/>
<path d="M159.784 281.032C160.779 283.618 159.568 286.53 157.063 287.558C154.558 288.586 151.738 287.335 150.742 284.749C149.747 282.162 150.958 279.25 153.463 278.223C155.968 277.195 158.789 278.445 159.784 281.032Z" fill="#7846D1"/>
<path d="M201.991 290.316C201.991 293.09 199.817 295.351 197.129 295.351C194.442 295.351 192.252 293.108 192.252 290.316C192.252 287.541 194.425 285.297 197.129 285.297C199.817 285.28 201.991 287.541 201.991 290.316Z" fill="#7846D1"/>
<path d="M233.048 300.678C233.048 303.453 230.875 305.697 228.187 305.697C225.499 305.697 223.326 303.453 223.326 300.678C223.326 297.904 225.499 295.66 228.187 295.66C230.875 295.643 233.048 297.886 233.048 300.678Z" fill="#7846D1"/>
<path d="M239.303 236.223C239.303 238.998 237.129 241.259 234.442 241.259C231.754 241.259 229.581 239.015 229.581 236.223C229.581 233.448 231.754 231.204 234.442 231.204C237.129 231.204 239.303 233.448 239.303 236.223Z" fill="#7846D1"/>
<path d="M203.965 322.415C203.965 325.19 201.791 327.434 199.087 327.434C196.399 327.434 194.226 325.19 194.226 322.415C194.226 319.64 196.399 317.396 199.087 317.396C201.791 317.379 203.965 319.64 203.965 322.415Z" fill="#7846D1"/>
<path d="M173.969 338.002C173.969 340.777 171.796 343.021 169.108 343.021C166.42 343.021 164.247 340.777 164.247 338.002C164.247 335.227 166.42 332.983 169.108 332.983C171.796 332.966 173.969 335.227 173.969 338.002Z" fill="#7846D1"/>
<path d="M170.485 309.62C170.485 312.395 168.312 314.638 165.624 314.638C162.936 314.638 160.763 312.395 160.763 309.62C160.763 306.845 162.936 304.584 165.624 304.584C168.295 304.584 170.485 306.845 170.485 309.62Z" fill="#7846D1"/>
<path d="M218.448 268.631C218.448 271.405 216.275 273.649 213.587 273.649C210.9 273.649 208.726 271.405 208.726 268.631C208.726 265.856 210.9 263.612 213.587 263.612C216.258 263.595 218.448 265.856 218.448 268.631Z" fill="#7846D1"/>
<path d="M245.358 262.293C245.358 265.068 243.185 267.312 240.497 267.312C237.81 267.312 235.636 265.068 235.636 262.293C235.636 259.518 237.81 257.274 240.497 257.274C243.185 257.257 245.358 259.518 245.358 262.293Z" fill="#7846D1"/>
<path d="M228.187 330.722C228.187 333.497 226.014 335.741 223.326 335.741C220.638 335.741 218.465 333.497 218.465 330.722C218.465 327.947 220.638 325.704 223.326 325.704C225.997 325.704 228.187 327.947 228.187 330.722Z" fill="#7846D1"/>
<path d="M229.498 370.495C229.498 373.27 227.324 375.514 224.637 375.514C221.949 375.514 219.776 373.27 219.776 370.495C219.776 367.721 221.949 365.477 224.637 365.477C227.308 365.477 229.498 367.721 229.498 370.495Z" fill="#7846D1"/>
<path d="M204.711 353.915C205.707 356.501 204.496 359.413 201.991 360.441C199.485 361.468 196.665 360.218 195.669 357.632C194.674 355.045 195.885 352.133 198.39 351.106C200.879 350.078 203.716 351.328 204.711 353.915Z" fill="#7846D1"/>
<path d="M171.563 368.646C172.559 371.232 171.348 374.144 168.842 375.172C166.337 376.199 163.517 374.949 162.521 372.362C161.526 369.776 162.737 366.864 165.242 365.836C167.731 364.809 170.568 366.059 171.563 368.646Z" fill="#7846D1"/>
<path d="M270.178 529.056L269.166 522.787L265.234 498.499L263.89 490.174L260.141 466.948L253.322 467.273L162.92 471.504L129.456 473.062L127.3 491.133L126.288 499.544L123.318 524.483L122.77 529.056H270.178Z" fill="#9C78ED"/>
<path d="M270.161 529.056L269.232 523.404L269.149 522.804L268.502 518.796L267.855 514.84L265.201 498.482L264.438 493.651L263.857 490.174L263.774 489.66L260.356 468.472L260.124 466.965L259.825 465.663L259.56 464.515L258.034 457.51L254.997 443.807L254.118 439.884L252.625 433.032L250.817 424.828L249.589 419.21L248.71 415.287L245.375 400.128L244.147 394.578L243.567 391.889L243.301 390.656L240.962 380.002C204.214 391.204 165.292 384.558 148.021 380.55C147.258 384.147 146.412 387.915 145.566 391.718C145.367 392.557 145.184 393.379 144.985 394.219C144.687 395.52 144.371 396.839 144.073 398.141C143.957 398.775 143.807 399.374 143.658 400.008C142.231 406.226 140.738 412.564 139.278 418.85C138.979 420.152 138.697 421.471 138.399 422.738C138.249 423.406 138.1 424.04 137.934 424.725C137.32 427.5 136.706 430.275 136.093 432.964C135.329 436.561 134.599 440.09 133.903 443.584C133.637 444.886 133.372 446.153 133.14 447.421C132.443 450.949 131.829 454.392 131.298 457.715C130.833 460.61 130.452 463.385 130.153 466.108C130.037 466.947 129.954 467.77 129.838 468.558C129.722 469.911 129.573 471.213 129.456 472.514C129.456 472.72 129.423 472.874 129.423 473.062L127.283 491.116L126.935 493.925L126.47 497.848L126.271 499.509L123.899 519.276L123.434 523.233L123.285 524.5L122.77 529.056H270.161Z" fill="#403657"/>
<path d="M225.698 150.099C225.698 150.099 231.671 142.289 236.117 148.746C240.564 155.204 234.276 174.302 223.392 169.643L225.698 150.099Z" fill="#F97853"/>
<path d="M225.781 163.751C226.18 163.751 226.545 163.494 226.661 163.1C228.353 157.208 234.574 154.81 234.641 154.793C235.122 154.621 235.354 154.09 235.172 153.628C234.989 153.166 234.458 152.926 233.994 153.097C233.695 153.2 226.843 155.82 224.902 162.603C224.769 163.083 225.051 163.58 225.533 163.717C225.615 163.734 225.698 163.751 225.781 163.751Z" fill="#EA5143"/>
<path d="M232.069 160.771C232.235 160.771 232.418 160.719 232.567 160.634C232.998 160.36 233.114 159.811 232.849 159.383C232.799 159.315 231.704 157.67 229.398 156.66C228.934 156.454 228.386 156.66 228.187 157.122C227.971 157.585 228.187 158.116 228.652 158.321C230.427 159.109 231.306 160.377 231.306 160.377C231.472 160.634 231.754 160.771 232.069 160.771Z" fill="#EA5143"/>
<path d="M223.011 169.523C221.982 170.705 221.352 172.264 221.352 173.977C221.352 177.66 224.255 180.674 227.839 180.674C231.406 180.674 234.326 177.677 234.326 173.977C234.326 171.853 233.363 169.952 231.854 168.736C231.107 168.119 230.211 167.674 229.249 167.451C229.083 167.006 229.166 166.577 229.481 166.183C230.725 166.457 231.854 167.04 232.783 167.862C234.491 169.318 235.57 171.528 235.57 173.977C235.57 178.379 232.102 181.959 227.839 181.959C223.575 181.959 220.107 178.379 220.107 173.977C220.107 172.076 220.754 170.346 221.833 168.975C222.231 169.147 222.613 169.335 223.011 169.523Z" fill="white"/>
<path d="M179.626 190.044V213.476C179.626 213.476 190.178 221.869 198.39 222.606C206.603 223.342 209.456 213.339 209.456 213.339V191.534L179.626 190.044Z" fill="#FFA681"/>
<path d="M179.626 192.339V201.691C185.151 208.012 194.939 210.256 209.456 208.046V193.829L179.626 192.339Z" fill="#F97853"/>
<path d="M229.299 159.006C229.033 161.267 228.735 163.563 228.336 165.858C225.732 181.085 216.391 197.546 204.612 200.304C179.162 206.265 168.594 185.624 164.529 170.414C164.081 168.718 164.927 166.783 164.562 164.779C163.716 160.034 161.858 154.639 161.443 149.329C161.144 145.646 160.945 142.015 160.796 138.726C160.381 129.476 165.574 120.963 173.687 117.64C185.383 112.844 203.152 109.042 219.975 119.216C226.196 122.985 230.095 129.939 230.228 137.578C230.344 143.419 230.195 151.024 229.299 159.006Z" fill="#FFA681"/>
<path d="M197.03 170.791C196.549 170.791 196.134 170.431 196.051 169.935C195.968 169.387 196.317 168.856 196.864 168.753L200.265 168.17L195.587 155.307C195.387 154.776 195.653 154.193 196.167 153.988C196.682 153.799 197.246 154.056 197.445 154.587L202.969 169.763L197.212 170.757C197.129 170.791 197.08 170.791 197.03 170.791Z" fill="#F97853"/>
<path d="M209.207 153.782C209.207 156.026 210.336 157.859 211.713 157.859C213.09 157.859 214.218 156.043 214.218 153.782C214.218 151.521 213.09 149.706 211.713 149.706C210.319 149.706 209.207 151.521 209.207 153.782Z" fill="#403657"/>
<path d="M181.501 153.782C181.501 156.026 182.629 157.859 184.006 157.859C185.383 157.859 186.511 156.043 186.511 153.782C186.511 151.521 185.383 149.706 184.006 149.706C182.613 149.706 181.501 151.521 181.501 153.782Z" fill="#403657"/>
<path d="M219.079 143.094C217.071 142.683 212.99 142.015 208.643 142.169C207.499 142.203 206.586 143.094 206.752 144.036V144.053C206.885 144.807 207.648 145.303 208.56 145.235C211.513 145.012 219.261 145.047 222.861 146.16C222.961 145.629 222.613 145.047 222.098 144.55C221.335 143.813 220.257 143.334 219.079 143.094Z" fill="#403657"/>
<path d="M178.78 143.591C180.788 143.162 184.852 142.426 189.199 142.529C190.344 142.546 191.273 143.436 191.124 144.378V144.396C191.008 145.149 190.244 145.663 189.315 145.612C186.346 145.423 178.614 145.577 175.031 146.742C174.931 146.211 175.263 145.629 175.761 145.115C176.524 144.344 177.602 143.847 178.78 143.591Z" fill="#403657"/>
<path d="M209.207 176.872C208.477 180.452 206.039 187.029 197.843 187.029C189.614 187.029 187.308 181.017 186.528 176.872H209.207Z" fill="white"/>
<path d="M197.942 193.178C200.315 193.178 202.405 191.859 202.488 191.808C202.936 191.517 203.086 190.9 202.803 190.438C202.521 189.975 201.924 189.821 201.476 190.112C201.46 190.129 199.751 191.191 197.942 191.191C195.985 191.191 194.243 190.129 194.226 190.112C193.762 189.821 193.164 189.975 192.899 190.455C192.617 190.935 192.766 191.534 193.231 191.825C193.314 191.859 195.437 193.178 197.942 193.178Z" fill="#F97853"/>
<path d="M230.327 156.608C230.095 156.814 229.863 156.745 229.647 156.334C226.279 150.219 229.448 138.007 219.494 133.33C211.912 129.768 209.191 122.437 209.191 122.437C207.465 125.503 202.953 128.312 202.953 128.312C202.953 128.312 191.505 135.317 179.626 140.045C176.093 141.449 173.571 142.871 171.812 144.104C171.945 144.139 172.028 144.173 172.028 144.173C172.028 144.173 168.743 149.688 171.149 158.27C173.554 166.851 170.452 181 165.11 184.271C165.209 184.032 169.224 174.251 166.951 166.252C165.641 161.679 165.657 154.382 164.413 150.031C163.036 149.055 159.867 147.41 158.805 146.759C158.507 143.008 158.274 139.308 158.125 135.951C157.694 126.513 163.169 117.846 171.713 114.455C184.039 109.556 202.77 105.685 220.506 116.065C227.059 119.901 231.173 126.993 231.323 134.769C231.422 140.713 231.273 148.472 230.327 156.608Z" fill="#403657"/>
<path d="M164.413 150.031C164.413 150.031 157.461 141.33 153.363 147.599C149.266 153.885 155.321 173.121 165.358 168.599L164.413 150.031Z" fill="#FFA681"/>
<path d="M164.695 168.907C165.408 170.311 165.657 171.973 165.259 173.634C164.396 177.214 160.862 179.39 157.395 178.499C153.928 177.608 151.82 173.96 152.683 170.38C153.181 168.325 154.558 166.732 156.3 165.909C157.179 165.498 158.142 165.293 159.137 165.31C159.303 164.933 159.402 164.505 159.203 164.025C157.942 163.991 156.698 164.265 155.603 164.813C153.612 165.807 152.036 167.674 151.472 170.055C150.443 174.32 152.965 178.653 157.096 179.732C161.227 180.794 165.425 178.191 166.47 173.926C166.918 172.093 166.686 170.243 165.972 168.65C165.541 168.753 165.11 168.838 164.695 168.907Z" fill="white"/>
<path d="M162.903 162.175C162.538 162.175 162.19 161.918 162.09 161.541C160.531 155.82 154.79 153.491 154.724 153.474C154.293 153.303 154.06 152.789 154.226 152.343C154.392 151.898 154.873 151.658 155.321 151.829C155.587 151.932 161.924 154.467 163.716 161.062C163.849 161.524 163.583 162.004 163.135 162.141C163.052 162.158 162.986 162.175 162.903 162.175Z" fill="#F97853"/>
<path d="M157.113 159.28C156.964 159.28 156.798 159.229 156.648 159.143C156.25 158.887 156.134 158.338 156.399 157.927C156.449 157.859 157.461 156.266 159.585 155.272C160.016 155.067 160.514 155.272 160.713 155.718C160.912 156.163 160.713 156.677 160.282 156.882C158.639 157.636 157.843 158.869 157.826 158.887C157.66 159.143 157.395 159.28 157.113 159.28Z" fill="#F97853"/>
<path d="M532.525 339.081C516.349 351.071 491.049 359.293 491.049 359.293L485.872 340.057L481.824 325.053L478.971 314.467L449.97 314.45C451.546 320.068 453.156 325.789 454.798 331.442C456.889 338.721 458.979 345.847 460.953 352.424C463.757 361.674 466.329 369.81 468.419 375.634C468.9 376.987 469.464 378.46 470.111 380.036C473.993 390.844 477.112 402.577 491.911 395.212C504.935 388.737 522.604 379.762 531.43 373.801L532.525 339.081Z" fill="#FFA681"/>
<path d="M454.798 331.425C456.889 338.704 458.979 345.83 460.97 352.407C472.799 351.106 480.995 345.059 485.872 340.04L481.824 325.036L454.798 331.425Z" fill="#F97853"/>
<path d="M448.643 226.425C448.643 226.425 478.904 300.918 491.911 325.053C491.911 325.053 473.678 341.051 455.91 341.496C455.91 341.496 445.673 259.706 448.643 226.425Z" fill="#6020BD"/>
<path d="M377.818 529.108C378.116 523.901 378.415 518.933 378.664 514.326C379.742 495.518 380.422 482.689 380.422 482.689L373.288 482.363L369.274 482.175L320.779 479.948C320.779 479.948 319.9 494.302 318.855 515.388C318.639 519.704 318.423 524.294 318.208 529.108H377.818Z" fill="#9C78ED"/>
<path d="M373.288 482.363L380.422 482.689C380.422 482.689 379.726 495.518 378.664 514.326C360.032 515.936 339.692 516.587 318.855 515.388C319.9 494.302 320.779 479.948 320.779 479.948L369.273 482.175L373.288 482.363Z" fill="#7846D1"/>
<path d="M370.75 529.108C371.878 509.016 372.791 491.818 373.305 482.363L369.29 482.175C368.792 491.664 367.863 508.947 366.735 529.108H370.75Z" fill="#7846D1"/>
<path d="M393.446 529.108H453.056C452.84 524.294 452.608 519.704 452.409 515.388C451.364 494.302 450.485 479.948 450.485 479.948L401.99 482.175L397.975 482.363L390.841 482.689C390.841 482.689 391.538 495.518 392.6 514.326C392.849 518.933 393.131 523.901 393.446 529.108Z" fill="#9C78ED"/>
<path d="M397.959 482.363L390.825 482.689C390.825 482.689 391.522 495.518 392.583 514.326C411.215 515.936 431.555 516.587 452.392 515.388C451.347 494.302 450.468 479.948 450.468 479.948L401.974 482.175L397.959 482.363Z" fill="#7846D1"/>
<path d="M404.529 529.108C403.4 508.947 402.471 491.664 401.974 482.175L397.959 482.363C398.456 491.818 399.385 509.016 400.514 529.108H404.529Z" fill="#7846D1"/>
<path d="M310.261 444.269C310.261 445.297 310.261 446.324 310.261 447.318C310.277 465.629 310.377 479.811 310.46 486.783C327.581 491.579 344.719 494.662 361.858 496.101C362.637 496.169 363.4 496.221 364.18 496.289C364.595 496.323 365.01 496.358 365.424 496.375C366.337 496.443 367.266 496.495 368.179 496.546C369.207 496.615 370.219 496.666 371.248 496.717C382.911 497.283 394.558 497.06 406.221 496.066C408.577 495.861 410.916 495.638 413.272 495.364C413.421 495.347 413.57 495.33 413.72 495.313C414.317 495.244 414.914 495.176 415.528 495.09C415.893 495.039 416.258 495.004 416.623 494.953C430.178 493.274 443.749 490.551 457.32 486.765C457.353 483.597 457.37 478.903 457.37 472.994C457.37 471.898 457.37 470.767 457.37 469.585C457.37 461.124 457.303 450.589 457.22 438.702C457.22 437.692 457.204 436.664 457.204 435.619C457.137 427.688 457.054 419.21 456.955 410.354C456.938 409.326 456.938 408.299 456.922 407.271C456.806 398.193 456.673 388.772 456.523 379.197C456.424 373.356 456.324 367.446 456.208 361.554C456.092 355.576 455.959 349.581 455.827 343.637C455.793 342.336 455.76 341.051 455.727 339.749C454.4 283.481 452.094 231.752 448.295 225.98C445.657 221.989 439.634 217.296 432.517 212.568C431.654 212.003 430.758 211.42 429.862 210.838C426.843 208.885 402.139 200.218 399.004 198.317L372.907 196.433C372.741 196.536 347.789 205.22 347.623 205.305C346.544 205.939 345.466 206.573 344.388 207.224C335.147 212.722 326.022 218.529 320.779 223.53C320.016 224.25 319.319 224.969 318.739 225.654C318.274 226.203 317.859 226.734 317.527 227.265C317.212 227.744 316.914 228.532 316.615 229.628C313.463 241.481 311.804 288.037 310.974 338.704C310.908 342.336 310.858 345.984 310.808 349.65C310.792 351.26 310.758 352.87 310.742 354.48C310.725 355.593 310.709 356.707 310.692 357.803C310.692 358.368 310.675 358.916 310.675 359.464C310.642 362.222 310.609 364.963 310.593 367.703C310.576 369.725 310.543 371.746 310.526 373.767C310.311 399.289 310.228 424.074 310.261 444.269Z" fill="#7846D1"/>
<path d="M263.575 516.621C262.928 523.815 271.422 519.91 269.016 505.333C266.627 490.756 273.43 477.567 276.35 477.978C279.286 478.406 273.927 493.891 276.532 499.475C279.137 505.059 282.505 494.216 285.856 487.639C289.34 480.805 289.124 465.903 287.548 455.266C285.972 444.629 304.637 380.002 304.736 361.28L307.009 353.349L315.337 324.282L328.378 278.771C328.378 278.771 320.563 244.325 307.391 247.288C307.391 247.288 300.423 271.285 292.957 298.349C291.696 302.939 290.418 307.633 289.157 312.292C283.848 331.904 278.855 351.277 276.532 362.77C270.41 393.122 269.929 456.19 269.929 456.19C269.929 456.19 259.112 479.366 258.863 489.677C258.614 500.674 264.205 509.427 263.575 516.621Z" fill="#FFA681"/>
<path d="M289.174 312.275L307.026 353.332L315.354 324.265L292.973 298.315C291.712 302.922 290.452 307.615 289.174 312.275Z" fill="#F97853"/>
<path d="M288.295 300.045C296.126 313.902 304.089 327.69 312.019 341.496C314.624 332.469 317.345 323.802 319.883 315.82C319.883 315.803 319.9 315.786 319.9 315.752C320.912 312.566 321.907 309.5 322.853 306.554C322.87 306.502 322.886 306.451 322.903 306.399C323.235 305.372 323.55 304.344 323.882 303.35C327.664 291.532 330.601 282.145 331.447 276.664C333.703 261.916 327.548 233.054 318.855 227.35C318.622 227.864 317.942 226.271 317.527 227.247C316.001 230.879 309.232 239.871 305.881 248.624C305.449 249.737 305.018 250.902 304.554 252.084C299.709 264.982 293.786 281.717 288.295 300.045Z" fill="#7846D1"/>
<path d="M384.802 223.393C396.101 223.393 404.081 212.739 404.412 212.294C404.894 211.643 404.794 210.701 404.213 210.17C403.633 209.639 402.77 209.742 402.289 210.393C402.189 210.53 394.773 220.379 384.802 220.379C374.948 220.379 368.942 209.228 368.892 209.125C368.51 208.406 367.681 208.166 367.034 208.577C366.387 208.988 366.154 209.913 366.536 210.632C366.802 211.146 373.371 223.393 384.802 223.393Z" fill="#6020BD"/>
<path d="M432.6 325.412C432.815 325.412 433.015 325.361 433.214 325.241C433.894 324.864 434.159 323.956 433.827 323.203L428.9 312.446C428.552 311.692 427.722 311.401 427.059 311.778C426.378 312.155 426.113 313.063 426.445 313.816L431.372 324.573C431.621 325.104 432.102 325.412 432.6 325.412Z" fill="#6020BD"/>
<path d="M442.869 316.591C443.052 316.711 443.251 316.797 443.467 316.814C444.23 316.882 444.893 316.266 444.96 315.426L445.922 303.419C445.988 302.58 445.424 301.843 444.678 301.775C443.915 301.706 443.251 302.323 443.185 303.162L442.222 315.169C442.189 315.769 442.455 316.3 442.869 316.591Z" fill="#6020BD"/>
<path d="M416.391 297.972C417.054 297.972 417.635 297.441 417.751 296.705L419.526 284.817C419.643 283.995 419.145 283.207 418.398 283.07C417.652 282.933 416.938 283.498 416.822 284.32L415.047 296.208C414.931 297.03 415.429 297.818 416.175 297.955C416.241 297.972 416.308 297.972 416.391 297.972Z" fill="#6020BD"/>
<path d="M372.11 302.408C372.343 302.408 372.592 302.34 372.807 302.203C373.454 301.775 373.67 300.85 373.288 300.13L367.731 289.75C367.349 289.031 366.503 288.791 365.839 289.219C365.192 289.647 364.976 290.572 365.358 291.292L370.916 301.672C371.181 302.134 371.629 302.408 372.11 302.408Z" fill="#6020BD"/>
<path d="M426.511 255.921C426.76 255.921 427.025 255.835 427.258 255.681L436.432 249.138C437.063 248.675 437.245 247.751 436.847 247.031C436.432 246.329 435.586 246.123 434.939 246.586L425.765 253.129C425.134 253.591 424.952 254.516 425.35 255.236C425.615 255.664 426.063 255.921 426.511 255.921Z" fill="#6020BD"/>
<path d="M385.682 352.544C385.897 352.544 386.096 352.493 386.295 352.373C386.976 351.996 387.241 351.088 386.909 350.335L381.982 339.578C381.633 338.824 380.821 338.533 380.14 338.91C379.46 339.287 379.195 340.195 379.526 340.948L384.454 351.705C384.686 352.236 385.167 352.544 385.682 352.544Z" fill="#6020BD"/>
<path d="M407.332 264.006C407.797 264.006 408.245 263.749 408.494 263.286C408.892 262.567 408.709 261.642 408.062 261.197L398.805 254.808C398.158 254.362 397.312 254.585 396.913 255.287C396.515 256.007 396.698 256.932 397.345 257.377L406.602 263.766C406.835 263.937 407.083 264.006 407.332 264.006Z" fill="#6020BD"/>
<path d="M429.331 219.282C429.315 219.574 429.365 219.865 429.481 220.105C429.696 220.55 430.111 220.858 430.592 220.91C431.356 220.978 432.003 220.344 432.052 219.505L432.484 212.585C431.621 212.02 430.742 211.437 429.829 210.855L429.331 219.282Z" fill="#6020BD"/>
<path d="M441.675 285.28C442.139 285.28 442.587 285.023 442.836 284.56C443.234 283.841 443.052 282.916 442.405 282.471L433.147 276.082C432.5 275.636 431.654 275.859 431.256 276.561C430.858 277.281 431.04 278.205 431.687 278.651L440.945 285.04C441.177 285.194 441.426 285.28 441.675 285.28Z" fill="#6020BD"/>
<path d="M367.88 232.797C368.145 232.797 368.394 232.711 368.643 232.54C369.273 232.078 369.456 231.136 369.041 230.433L363.765 221.595C363.351 220.893 362.488 220.704 361.857 221.167C361.227 221.629 361.045 222.571 361.459 223.274L366.735 232.112C367.001 232.557 367.432 232.797 367.88 232.797Z" fill="#6020BD"/>
<path d="M363.152 385.534C363.517 385.534 363.882 385.38 364.147 385.072L371.712 376.37C372.243 375.771 372.227 374.812 371.679 374.229C371.132 373.647 370.252 373.664 369.738 374.281L362.173 382.982C361.642 383.582 361.658 384.541 362.206 385.123C362.471 385.38 362.82 385.534 363.152 385.534Z" fill="#6020BD"/>
<path d="M390.941 383.719C391.306 383.719 391.671 383.565 391.936 383.256L399.502 374.555C400.032 373.955 400.016 372.996 399.468 372.414C398.921 371.831 398.058 371.849 397.527 372.465L389.962 381.167C389.431 381.766 389.448 382.725 389.995 383.308C390.244 383.582 390.592 383.719 390.941 383.719Z" fill="#6020BD"/>
<path d="M410.916 442.488C411.049 442.111 411.032 441.683 410.866 441.306L406.154 430.429C405.823 429.675 405.01 429.35 404.313 429.71C403.633 430.069 403.334 430.977 403.666 431.731L408.378 442.607C408.709 443.361 409.522 443.687 410.219 443.327C410.551 443.156 410.783 442.847 410.916 442.488Z" fill="#6020BD"/>
<path d="M331.182 478.355C331.314 477.978 331.298 477.55 331.132 477.173L326.42 466.297C326.088 465.543 325.275 465.217 324.578 465.577C323.898 465.937 323.6 466.845 323.931 467.598L328.643 478.475C328.975 479.229 329.788 479.554 330.485 479.194C330.833 479.023 331.065 478.715 331.182 478.355Z" fill="#6020BD"/>
<path d="M365.424 496.358C366.354 496.426 367.266 496.477 368.178 496.529L369.141 489.763C369.257 488.941 368.743 488.153 367.996 488.033C367.249 487.913 366.536 488.478 366.42 489.301L365.424 496.358Z" fill="#6020BD"/>
<path d="M354.441 475.906C354.74 475.683 354.956 475.323 355.006 474.895L356.698 462.991C356.814 462.168 356.3 461.381 355.553 461.261C354.806 461.124 354.093 461.689 353.977 462.528L352.285 474.433C352.169 475.255 352.683 476.043 353.429 476.163C353.811 476.214 354.159 476.111 354.441 475.906Z" fill="#6020BD"/>
<path d="M420.82 376.319C421.053 376.319 421.285 376.251 421.501 376.114C422.164 375.685 422.38 374.76 421.998 374.041L416.523 363.61C416.142 362.89 415.296 362.633 414.649 363.061C413.985 363.473 413.769 364.415 414.151 365.134L419.626 375.565C419.875 376.045 420.339 376.319 420.82 376.319Z" fill="#6020BD"/>
<path d="M404.761 350.249C405.259 350.249 405.74 349.958 405.989 349.427L410.999 338.721C411.347 337.968 411.082 337.06 410.402 336.683C409.721 336.289 408.892 336.597 408.543 337.334L403.533 348.039C403.185 348.793 403.45 349.701 404.13 350.078C404.329 350.198 404.545 350.249 404.761 350.249Z" fill="#6020BD"/>
<path d="M448.245 348.673C448.394 348.862 448.577 348.999 448.759 349.101C449.224 349.307 449.771 349.238 450.186 348.862L455.81 343.637C455.777 342.336 455.76 341.051 455.727 339.749L448.411 346.532C447.83 347.08 447.764 348.022 448.245 348.673Z" fill="#6020BD"/>
<path d="M404.827 236.6C405.325 236.6 405.806 236.308 406.055 235.778L411.065 225.072C411.414 224.318 411.148 223.411 410.468 223.034C409.788 222.657 408.958 222.948 408.61 223.685L403.599 234.39C403.251 235.144 403.517 236.052 404.197 236.428C404.396 236.548 404.612 236.6 404.827 236.6Z" fill="#6020BD"/>
<path d="M372.758 275.842C372.84 275.842 372.923 275.825 373.023 275.808C373.77 275.653 374.251 274.848 374.118 274.026L372.044 262.19C371.895 261.368 371.181 260.82 370.435 260.991C369.688 261.145 369.207 261.95 369.34 262.773L371.414 274.608C371.53 275.345 372.11 275.842 372.758 275.842Z" fill="#6020BD"/>
<path d="M390.609 286.239C390.692 286.239 390.775 286.222 390.875 286.205C391.621 286.05 392.102 285.245 391.969 284.423L389.896 272.587C389.746 271.765 389.033 271.234 388.286 271.388C387.54 271.542 387.059 272.347 387.191 273.17L389.265 285.006C389.381 285.725 389.962 286.239 390.609 286.239Z" fill="#6020BD"/>
<path d="M377.818 247.185C378.266 247.185 378.714 246.928 378.979 246.483L384.835 236.308C385.25 235.606 385.051 234.664 384.404 234.219C383.757 233.773 382.911 233.979 382.513 234.681L376.656 244.856C376.242 245.558 376.441 246.5 377.088 246.945C377.303 247.117 377.569 247.185 377.818 247.185Z" fill="#6020BD"/>
<path d="M431.488 352.133C431.87 351.688 431.969 351.02 431.721 350.438L427.025 339.561C426.694 338.807 425.881 338.482 425.184 338.841C424.504 339.201 424.205 340.109 424.537 340.863L429.232 351.739C429.564 352.493 430.377 352.818 431.073 352.459C431.223 352.373 431.372 352.27 431.488 352.133Z" fill="#6020BD"/>
<path d="M396.084 320.565C396.631 320.565 397.146 320.205 397.361 319.606L401.343 308.386C401.625 307.598 401.277 306.725 400.563 306.417C399.85 306.108 399.054 306.502 398.788 307.273L394.806 318.492C394.524 319.28 394.873 320.154 395.586 320.462C395.752 320.531 395.918 320.565 396.084 320.565Z" fill="#6020BD"/>
<path d="M352.384 389.902C352.6 389.902 352.799 389.851 352.998 389.731C353.678 389.354 353.944 388.446 353.612 387.693L348.685 376.936C348.336 376.182 347.507 375.891 346.843 376.268C346.163 376.645 345.897 377.552 346.229 378.306L351.157 389.063C351.389 389.594 351.886 389.902 352.384 389.902Z" fill="#6020BD"/>
<path d="M424.819 467.204C424.819 467.427 424.869 467.667 424.968 467.89C425.317 468.626 426.146 468.917 426.826 468.54L436.515 462.991C437.195 462.614 437.461 461.689 437.096 460.935C436.747 460.199 435.918 459.907 435.238 460.284L425.549 465.834C425.084 466.108 424.819 466.639 424.819 467.204Z" fill="#6020BD"/>
<path d="M451.132 474.09C451.132 474.33 451.181 474.553 451.281 474.775C451.629 475.529 452.459 475.803 453.139 475.426L457.353 473.011C457.353 471.915 457.353 470.784 457.353 469.602L451.878 472.72C451.397 472.994 451.132 473.542 451.132 474.09Z" fill="#6020BD"/>
<path d="M410.418 487.502L413.736 495.313C414.334 495.244 414.931 495.176 415.545 495.09C415.91 495.039 416.275 495.004 416.623 494.953L412.907 486.2C412.592 485.447 411.762 485.104 411.082 485.464C410.385 485.841 410.086 486.731 410.418 487.502Z" fill="#6020BD"/>
<path d="M334.5 362.462C335.163 362.462 335.744 361.931 335.86 361.194L337.635 349.307C337.751 348.485 337.254 347.697 336.507 347.56C335.76 347.423 335.047 347.988 334.931 348.81L333.156 360.698C333.04 361.52 333.537 362.308 334.284 362.445C334.35 362.462 334.417 362.462 334.5 362.462Z" fill="#6020BD"/>
<path d="M333.355 274.711C333.587 274.711 333.836 274.643 334.052 274.506C334.699 274.077 334.914 273.152 334.533 272.433L328.975 262.053C328.593 261.334 327.747 261.094 327.084 261.522C326.437 261.95 326.221 262.875 326.602 263.595L332.16 273.975C332.426 274.454 332.89 274.711 333.355 274.711Z" fill="#6020BD"/>
<path d="M351.239 316.882C351.488 316.882 351.754 316.797 351.986 316.642L361.144 310.099C361.774 309.637 361.957 308.712 361.559 307.992C361.144 307.29 360.298 307.085 359.651 307.547L350.476 314.09C349.846 314.553 349.663 315.478 350.062 316.197C350.344 316.625 350.792 316.882 351.239 316.882Z" fill="#6020BD"/>
<path d="M448.294 387.59C448.51 387.59 448.709 387.538 448.908 387.419C449.589 387.042 449.854 386.134 449.522 385.38L444.595 374.623C444.246 373.87 443.433 373.579 442.753 373.955C442.073 374.332 441.808 375.24 442.139 375.994L447.067 386.751C447.299 387.282 447.797 387.59 448.294 387.59Z" fill="#6020BD"/>
<path d="M335.628 333.223C336.092 333.223 336.54 332.966 336.789 332.504C337.187 331.784 337.005 330.859 336.358 330.414L327.1 324.025C326.453 323.58 325.607 323.802 325.209 324.505C324.811 325.224 324.993 326.149 325.64 326.594L334.898 332.983C335.113 333.137 335.379 333.223 335.628 333.223Z" fill="#6020BD"/>
<path d="M357.809 348.434C358.141 348.776 358.622 348.93 359.103 348.793C359.833 348.571 360.265 347.731 360.066 346.926L357.195 335.296C356.996 334.491 356.233 334.011 355.503 334.234C354.773 334.456 354.342 335.296 354.541 336.101L357.411 347.731C357.478 348.005 357.627 348.245 357.809 348.434Z" fill="#6020BD"/>
<path d="M318.755 225.654L321.144 229.662C321.41 230.108 321.841 230.348 322.289 230.348C322.554 230.348 322.803 230.279 323.036 230.091C323.666 229.628 323.848 228.686 323.434 227.984L320.779 223.53C320.016 224.25 319.336 224.969 318.755 225.654Z" fill="#6020BD"/>
<path d="M308.286 252.101L310.825 256.366C311.09 256.812 311.522 257.051 311.97 257.051C312.235 257.051 312.484 256.966 312.733 256.795C313.363 256.332 313.546 255.39 313.114 254.688L309.514 248.641C309.116 249.755 308.718 250.919 308.286 252.101Z" fill="#6020BD"/>
<path d="M427.274 425.136C427.639 425.136 428.004 424.982 428.27 424.674L435.835 415.972C436.366 415.373 436.349 414.414 435.802 413.831C435.254 413.249 434.375 413.266 433.861 413.883L426.295 422.584C425.764 423.183 425.781 424.143 426.329 424.725C426.577 424.999 426.926 425.136 427.274 425.136Z" fill="#6020BD"/>
<path d="M376.971 455.54C377.336 455.54 377.701 455.386 377.967 455.077L385.532 446.376C386.063 445.776 386.047 444.817 385.499 444.235C384.952 443.652 384.072 443.669 383.558 444.286L375.993 452.988C375.462 453.587 375.478 454.546 376.026 455.129C376.275 455.403 376.623 455.54 376.971 455.54Z" fill="#6020BD"/>
<path d="M362.986 443.464C363.218 443.156 363.334 442.744 363.284 442.316L361.924 430.36C361.824 429.521 361.144 428.939 360.381 429.041C359.634 429.144 359.087 429.898 359.186 430.737L360.547 442.693C360.646 443.532 361.327 444.115 362.09 444.012C362.455 443.961 362.77 443.755 362.986 443.464Z" fill="#6020BD"/>
<path d="M391.638 477.173C392.003 477.173 392.368 477.019 392.633 476.711L400.198 468.009C400.729 467.41 400.713 466.451 400.165 465.868C399.618 465.286 398.738 465.303 398.224 465.92L390.659 474.621C390.128 475.221 390.144 476.18 390.692 476.762C390.941 477.036 391.289 477.173 391.638 477.173Z" fill="#6020BD"/>
<path d="M310.244 444.269C310.244 445.297 310.244 446.324 310.244 447.318L318.772 448.106C319.535 448.174 320.198 447.558 320.265 446.718C320.331 445.879 319.767 445.16 319.004 445.074L310.244 444.269Z" fill="#6020BD"/>
<path d="M410.186 406.86C410.551 406.86 410.916 406.705 411.181 406.397L418.747 397.696C419.278 397.096 419.261 396.137 418.714 395.555C418.166 394.972 417.303 394.989 416.772 395.606L409.207 404.307C408.676 404.907 408.693 405.866 409.24 406.449C409.506 406.705 409.854 406.86 410.186 406.86Z" fill="#6020BD"/>
<path d="M373.819 403.074C373.836 403.468 374.002 403.862 374.301 404.136L382.662 411.896C383.243 412.444 384.106 412.358 384.603 411.707C385.084 411.056 385.018 410.114 384.437 409.566L376.076 401.807C375.495 401.259 374.632 401.344 374.135 401.995C373.902 402.303 373.803 402.697 373.819 403.074Z" fill="#6020BD"/>
<path d="M334.002 445.742C334.234 445.742 334.466 445.673 334.682 445.536C335.346 445.108 335.561 444.183 335.18 443.464L329.705 433.032C329.323 432.313 328.477 432.056 327.83 432.484C327.167 432.913 326.951 433.838 327.332 434.557L332.807 444.988C333.073 445.468 333.537 445.742 334.002 445.742Z" fill="#6020BD"/>
<path d="M324.545 414.739C325.043 414.739 325.524 414.431 325.773 413.917L330.783 403.211C331.132 402.458 330.866 401.55 330.186 401.173C329.506 400.779 328.676 401.087 328.328 401.824L323.318 412.529C322.969 413.283 323.235 414.191 323.915 414.568C324.114 414.688 324.33 414.739 324.545 414.739Z" fill="#6020BD"/>
<path d="M339.477 293.108C339.974 293.108 340.456 292.799 340.704 292.285L345.715 281.58C346.063 280.826 345.798 279.918 345.118 279.542C344.437 279.165 343.608 279.456 343.259 280.192L338.249 290.898C337.901 291.652 338.166 292.559 338.846 292.936C339.045 293.056 339.261 293.108 339.477 293.108Z" fill="#6020BD"/>
<path d="M334.002 248.162C334.085 248.162 334.168 248.144 334.267 248.127C335.014 247.973 335.495 247.168 335.362 246.346L333.289 234.51C333.139 233.688 332.426 233.14 331.679 233.311C330.933 233.465 330.452 234.27 330.584 235.092L332.658 246.928C332.791 247.648 333.355 248.162 334.002 248.162Z" fill="#6020BD"/>
<path d="M308.867 288.997C308.95 288.997 309.033 288.979 309.133 288.962C309.879 288.808 310.36 288.003 310.228 287.181L308.154 275.345C308.004 274.523 307.291 273.992 306.544 274.146C305.798 274.3 305.317 275.105 305.449 275.927L307.523 287.763C307.639 288.5 308.22 288.997 308.867 288.997Z" fill="#6020BD"/>
<path d="M351.87 258.542C351.953 258.542 352.036 258.525 352.135 258.507C352.882 258.353 353.363 257.548 353.23 256.726L351.157 244.89C351.007 244.068 350.294 243.537 349.547 243.691C348.801 243.845 348.32 244.65 348.452 245.472L350.526 257.308C350.642 258.045 351.223 258.542 351.87 258.542Z" fill="#6020BD"/>
<path d="M343.674 217.313C343.94 217.381 344.205 217.364 344.437 217.261C344.869 217.09 345.217 216.696 345.317 216.182L347.623 205.305C346.544 205.939 345.466 206.573 344.388 207.224L342.629 215.48C342.463 216.319 342.928 217.124 343.674 217.313Z" fill="#6020BD"/>
<path d="M312.202 307.29C312.65 307.29 313.098 307.033 313.363 306.588L319.22 296.413C319.634 295.711 319.435 294.769 318.788 294.324C318.141 293.878 317.295 294.084 316.897 294.786L311.041 304.961C310.626 305.663 310.825 306.605 311.472 307.05C311.688 307.222 311.953 307.29 312.202 307.29Z" fill="#6020BD"/>
<path d="M351.273 416.623C351.654 416.178 351.754 415.51 351.505 414.927L346.81 404.051C346.478 403.297 345.665 402.972 344.968 403.331C344.288 403.691 343.989 404.599 344.321 405.352L349.016 416.229C349.348 416.983 350.161 417.308 350.858 416.949C351.007 416.863 351.157 416.76 351.273 416.623Z" fill="#6020BD"/>
<path d="M448.029 437.058L457.22 438.702C457.22 437.691 457.204 436.664 457.187 435.619L448.477 434.06C447.73 433.94 447.017 434.488 446.901 435.311C446.768 436.15 447.266 436.921 448.029 437.058Z" fill="#6020BD"/>
<path d="M450.816 409.275L456.938 410.371C456.922 409.343 456.922 408.316 456.905 407.288L451.264 406.277C450.518 406.14 449.804 406.706 449.688 407.528C449.555 408.367 450.07 409.138 450.816 409.275Z" fill="#6020BD"/>
<path d="M315.868 385.055C316.416 385.055 316.93 384.695 317.146 384.096L321.128 372.876C321.41 372.088 321.061 371.215 320.348 370.906C319.634 370.598 318.838 370.992 318.573 371.763L314.591 382.982C314.309 383.77 314.657 384.644 315.371 384.952C315.537 385.021 315.702 385.055 315.868 385.055Z" fill="#6020BD"/>
<path d="M310.825 349.65C313.413 338.636 316.648 326.389 319.867 315.837C319.867 315.82 319.883 315.803 319.883 315.769C320.879 312.514 321.874 309.414 322.836 306.571C322.853 306.519 322.87 306.468 322.886 306.417C323.185 305.526 323.483 304.652 323.799 303.813C323.848 303.659 323.865 303.522 323.865 303.368C323.865 302.871 323.566 302.391 323.069 302.203C322.438 301.963 321.741 302.306 321.509 302.957C318.208 312.24 314.309 325.601 310.974 338.704C310.924 342.336 310.875 345.984 310.825 349.65Z" fill="#6020BD"/>
<path d="M350.261 136.91C350.261 136.91 340.688 126.016 344.305 113.324C347.921 100.649 357.809 100.786 357.809 100.786C357.809 100.786 363.583 87.3053 373.405 86.8599C383.226 86.4146 392.5 68.3951 401.443 73.2939C410.385 78.1928 400.48 88.864 400.48 88.864C400.48 88.864 415.794 72.1806 420.854 77.0794C425.897 81.9782 413.836 95.0989 413.836 95.0989C413.836 95.0989 426.71 85.7637 430.941 89.3093C435.171 92.8721 420.854 108.22 420.854 108.22C420.854 108.22 430.111 125.451 420.787 133.193L350.261 136.91Z" fill="#403657"/>
<path d="M417.187 140.559C417.187 140.559 423.309 132.131 427.872 139.103C432.434 146.074 425.98 166.663 414.831 161.644L417.187 140.559Z" fill="#F97853"/>
<path d="M417.27 155.272C417.685 155.272 418.067 154.998 418.183 154.57C419.908 148.215 426.295 145.629 426.362 145.612C426.843 145.423 427.092 144.858 426.909 144.361C426.727 143.865 426.179 143.608 425.698 143.796C425.4 143.916 418.365 146.725 416.374 154.056C416.242 154.57 416.524 155.118 417.021 155.255C417.104 155.255 417.187 155.272 417.27 155.272Z" fill="#EA5143"/>
<path d="M423.707 152.069C423.89 152.069 424.056 152.018 424.222 151.915C424.653 151.624 424.786 151.024 424.504 150.562C424.454 150.493 423.326 148.712 420.97 147.616C420.489 147.393 419.941 147.616 419.726 148.112C419.51 148.609 419.726 149.174 420.207 149.397C422.032 150.236 422.927 151.607 422.927 151.624C423.093 151.915 423.392 152.069 423.707 152.069Z" fill="#EA5143"/>
<path d="M354.06 140.559C354.06 140.559 347.938 132.131 343.376 139.103C338.813 146.074 345.267 166.663 356.416 161.644L354.06 140.559Z" fill="#F97853"/>
<path d="M353.994 155.272C353.579 155.272 353.197 154.998 353.081 154.57C351.356 148.215 344.968 145.629 344.902 145.612C344.421 145.423 344.172 144.858 344.354 144.361C344.537 143.865 345.084 143.608 345.565 143.796C345.864 143.916 352.899 146.725 354.889 154.056C355.022 154.57 354.74 155.118 354.242 155.255C354.159 155.255 354.076 155.272 353.994 155.272Z" fill="#EA5143"/>
<path d="M347.54 152.069C347.357 152.069 347.191 152.018 347.026 151.915C346.594 151.624 346.461 151.024 346.743 150.562C346.793 150.493 347.921 148.712 350.277 147.616C350.758 147.393 351.306 147.616 351.522 148.112C351.737 148.609 351.522 149.174 351.04 149.397C349.215 150.236 348.32 151.607 348.32 151.624C348.154 151.915 347.855 152.069 347.54 152.069Z" fill="#EA5143"/>
<path d="M370.551 179.098V199.584C370.551 199.584 376.474 210.016 384.471 210.718C392.467 211.438 399.568 201.743 399.568 201.743V180.537L370.551 179.098Z" fill="#FFA681"/>
<path d="M370.551 179.098V188.194C375.926 194.343 385.449 195.885 399.568 193.726V180.537L370.551 179.098Z" fill="#F97853"/>
<path d="M349.647 126.513C350.012 134.478 350.742 144.43 352.218 152.377V152.395C352.218 152.412 352.218 152.446 352.235 152.463C352.235 152.463 352.235 152.463 352.235 152.48C352.6 154.416 352.998 156.249 353.446 157.893C353.712 158.852 353.994 159.863 354.325 160.89C359.021 176.118 369.921 198.163 397.295 188.074C408.826 183.826 414.831 171.545 417.884 158.201C418.066 157.413 418.232 156.625 418.382 155.855C418.481 155.358 418.581 154.861 418.664 154.382L418.796 153.662C418.813 153.542 418.83 153.457 418.846 153.405C418.846 153.371 418.846 153.354 418.846 153.354C420.655 143.094 420.92 132.731 420.787 125.331C420.655 117.777 416.656 110.874 410.285 107.14C393.031 97.0344 374.831 100.803 362.836 105.565C354.541 108.887 349.215 117.332 349.647 126.513Z" fill="#FFA681"/>
<path d="M352.202 152.377C352.202 152.377 352.202 152.377 352.202 152.395C352.202 152.412 352.202 152.446 352.218 152.463C352.218 152.463 352.218 152.463 352.218 152.48C352.401 153.148 353.363 156.797 354.309 160.89C359.004 176.118 369.904 198.163 397.278 188.074C408.809 183.826 414.815 171.545 417.867 158.201C418.05 157.413 418.216 156.625 418.365 155.855C418.465 155.358 418.564 154.861 418.647 154.382L418.78 153.662C418.796 153.542 418.813 153.457 418.83 153.405C418.83 153.371 418.83 153.354 418.83 153.354L414.798 152.515C414.035 156.454 412.326 160.154 410.236 163.46C406.835 155.032 389.547 160.634 389.547 160.634L389.464 160.668C388.419 161.01 387.324 161.182 386.246 161.182C385.134 161.182 384.023 160.993 382.928 160.634C382.928 160.634 365.856 154.793 362.305 162.826C358.772 157.174 356.366 152.035 356.366 152.035L352.202 152.377ZM386.229 164.47C405.773 161.747 402.704 172.607 402.704 172.607C400.53 174.645 398.556 176.135 397.212 176.906C392.948 179.355 388.751 180.297 385.698 180.143C382.695 180.006 381.882 180.64 374.3 176.409C372.957 175.673 371.613 174.559 370.286 173.257C369.954 171.133 366.636 160.993 386.229 164.47Z" fill="#403657"/>
<path d="M368.527 141.312C368.527 143.505 369.622 145.269 370.966 145.269C372.31 145.269 373.405 143.505 373.405 141.312C373.405 139.12 372.31 137.356 370.966 137.356C369.622 137.356 368.527 139.137 368.527 141.312Z" fill="#403657"/>
<path d="M399.004 141.312C399.004 143.505 400.099 145.269 401.443 145.269C402.787 145.269 403.882 143.505 403.882 141.312C403.882 139.12 402.787 137.356 401.443 137.356C400.082 137.356 399.004 139.137 399.004 141.312Z" fill="#403657"/>
<path d="M362.289 127.969C362.289 127.969 372.359 123.858 380.124 127.318L379.344 131.772C379.344 131.772 367.963 130.778 362.223 133.176C361.708 131.463 361.625 129.733 362.289 127.969Z" fill="#403657"/>
<path d="M410.169 127.986C410.169 127.986 400.016 123.841 392.218 127.335L392.998 131.823C392.998 131.823 404.462 130.829 410.236 133.245C410.767 131.515 410.833 129.768 410.169 127.986Z" fill="#403657"/>
<path d="M385.3 159.006C383.707 159.006 382.131 158.373 381.882 158.27C381.401 158.064 381.169 157.499 381.368 157.002C381.567 156.505 382.115 156.266 382.596 156.471C383.442 156.831 385.483 157.379 386.378 156.848C386.544 156.745 386.777 156.54 386.843 155.94C387.191 152.549 386.279 141.158 386.279 141.038C386.229 140.507 386.627 140.028 387.142 139.993C387.656 139.942 388.12 140.353 388.154 140.884C388.187 141.364 389.083 152.566 388.718 156.146C388.585 157.499 387.905 158.184 387.341 158.527C386.743 158.869 386.013 159.006 385.3 159.006Z" fill="#F97853"/>
<path d="M397.312 166.423C396.598 170.14 394.226 176.974 386.213 176.974C378.183 176.974 375.926 170.722 375.163 166.423H397.312Z" fill="white"/>
<path d="M349.63 126.496C349.995 134.461 350.725 144.413 352.202 152.36L356.416 152.052C356.416 152.052 355.387 145.337 354.923 140.953C354.458 136.568 353.645 128.397 357.262 127.369C360.879 126.359 358.755 117.024 363.782 112.981C368.809 108.922 380.041 107.808 387.44 112.519C394.84 117.212 403.201 112.159 406.602 112.981C410.02 113.786 414.665 118.651 413.405 123.19C412.144 127.729 415.91 130.487 416.822 135.18C417.735 139.873 414.815 152.532 414.815 152.532L418.846 153.371C420.655 143.111 420.937 132.748 420.804 125.348C420.671 117.794 416.673 110.874 410.302 107.157C393.048 97.0515 374.848 100.82 362.853 105.582C354.541 108.887 349.216 117.332 349.63 126.496Z" fill="#403657"/>
<path d="M523.035 345.642C520.48 369.759 505.217 423.646 494.665 434.197C480.912 447.935 435.669 476.865 412.094 491.699C407.847 494.371 427.822 512.202 427.822 512.202C427.822 512.202 490.402 484.573 514.309 462.785C521.078 456.619 534.798 437.178 550.294 400.162C554.989 388.943 566.387 366.299 565.789 351.534C565.092 334.559 538.962 337.351 523.035 345.642Z" fill="#7846D1"/>
<path d="M474.209 484.196C474.209 484.196 457.187 490.876 451.148 498.208C445.109 505.556 437.146 511.774 439.087 514.668C441.028 517.563 449.854 509.102 449.854 509.102C449.854 509.102 452.276 518.385 460.837 519.396C469.398 520.407 485.607 503.089 485.607 503.089L474.209 484.196Z" fill="#FFA681"/>
<path d="M642.222 412.992C642.222 414.516 642.205 416.332 642.189 418.37C642.156 420.409 642.122 422.687 642.056 425.17C642.006 426.866 641.957 428.682 641.89 430.566C641.84 432.159 641.774 433.803 641.708 435.516C641.641 437.263 641.558 439.062 641.475 440.929C640.298 466.194 637.427 501.068 631.123 529.039H498.713C503.126 508.725 509.895 476.66 515.254 435.071C515.486 433.324 515.702 431.559 515.918 429.778C516.133 427.997 516.349 426.198 516.565 424.382C516.681 423.423 516.797 422.447 516.913 421.471C516.996 420.666 517.096 419.861 517.179 419.073C517.428 416.829 517.643 414.619 517.842 412.461C518.008 410.662 518.158 408.881 518.307 407.134C520.58 379.18 519.783 358.214 523.035 345.659C526.834 331.048 571.148 314.296 571.148 314.296L598.904 315.803C598.904 315.803 625.383 324.727 639.534 337.557C653.686 350.386 641.857 388.669 642.205 410.405C642.222 411.142 642.222 411.998 642.222 412.992Z" fill="#9C78ED"/>
<path d="M642.189 418.37C630.144 419.878 617.585 420.477 605.258 420.477C564.893 420.477 527 414.105 517.826 412.444C517.992 410.645 518.141 408.864 518.29 407.117C528.958 409.069 590.642 419.604 642.205 412.992C642.239 414.516 642.222 416.332 642.189 418.37Z" fill="#E0D5F8"/>
<path d="M642.056 425.17C642.006 426.866 641.957 428.682 641.89 430.566C629.928 432.039 617.486 432.639 605.258 432.639C562.62 432.639 522.737 425.53 516.548 424.383C516.664 423.423 516.781 422.447 516.897 421.471C516.98 420.666 517.079 419.861 517.162 419.073C523.301 420.22 588.17 432.039 642.056 425.17Z" fill="#E0D5F8"/>
<path d="M641.724 435.516C641.658 437.263 641.575 439.062 641.492 440.929C629.049 442.556 616.025 443.19 603.267 443.19C561.973 443.19 523.284 436.527 515.254 435.054C515.486 433.307 515.702 431.542 515.918 429.761C525.474 431.525 589.198 442.625 641.724 435.516Z" fill="#E0D5F8"/>
<path d="M579.161 341.788C592.964 341.788 605.706 326.646 606.254 325.978C606.602 325.549 606.552 324.916 606.154 324.556C605.739 324.196 605.125 324.248 604.777 324.659C604.644 324.813 591.305 340.691 577.967 339.732C577.436 339.698 576.971 340.109 576.921 340.657C576.888 341.205 577.286 341.685 577.817 341.736C578.282 341.77 578.73 341.788 579.161 341.788Z" fill="#7846D1"/>
<path d="M591.14 512.167C591.621 512.167 592.052 511.791 592.102 511.277C592.168 510.729 591.787 510.232 591.239 510.163C555.586 505.933 540.804 442.196 540.654 441.563C540.538 441.015 540.007 440.689 539.493 440.809C538.962 440.929 538.647 441.477 538.763 442.008C539.36 444.697 554.01 507.765 591.023 512.167C591.057 512.15 591.09 512.167 591.14 512.167Z" fill="#7846D1"/>
<path d="M576.938 492.881C577.27 492.881 577.585 492.709 577.768 492.401C578.05 491.921 577.9 491.305 577.452 491.013C558.489 478.938 555.669 461.141 555.636 460.97C555.553 460.421 555.055 460.045 554.524 460.13C553.993 460.216 553.628 460.73 553.711 461.278C553.827 462.049 556.664 480.154 576.424 492.743C576.59 492.829 576.756 492.881 576.938 492.881Z" fill="#7846D1"/>
<path d="M588.004 288.38C609.582 288.38 627.075 270.32 627.075 248.042C627.075 225.764 609.582 207.704 588.004 207.704C566.426 207.704 548.933 225.764 548.933 248.042C548.933 270.32 566.426 288.38 588.004 288.38Z" fill="#403657"/>
<path d="M549.58 240.813C549.58 240.813 538.514 237.662 539.974 226.579C541.219 217.142 551.953 223.256 551.007 215.891C550.061 208.509 547.971 201.811 557.212 199.961C565.292 198.351 565.424 204.072 576.042 195.765C588.585 185.967 598.207 208.663 609.406 209.348C625.914 210.359 627.987 219.985 629.613 227.693C631.239 235.401 624.885 240.813 624.885 240.813H549.58Z" fill="#403657"/>
<path d="M555.503 259.33C555.503 259.33 549.315 250.817 544.719 257.857C540.124 264.896 546.627 285.708 557.892 280.621L555.503 259.33Z" fill="#F97853"/>
<path d="M555.42 274.197C555.005 274.197 554.624 273.906 554.508 273.478C552.766 267.055 546.312 264.451 546.246 264.434C545.748 264.246 545.516 263.68 545.698 263.167C545.881 262.653 546.428 262.413 546.926 262.601C547.224 262.721 554.325 265.565 556.349 272.964C556.499 273.495 556.2 274.026 555.686 274.18C555.603 274.18 555.503 274.197 555.42 274.197Z" fill="#EA5143"/>
<path d="M548.917 270.96C548.734 270.96 548.568 270.909 548.402 270.806C547.955 270.515 547.838 269.898 548.12 269.453C548.17 269.384 549.315 267.586 551.687 266.472C552.169 266.25 552.733 266.472 552.948 266.969C553.164 267.466 552.948 268.048 552.467 268.271C550.626 269.127 549.73 270.498 549.713 270.515C549.531 270.806 549.232 270.96 548.917 270.96Z" fill="#EA5143"/>
<path d="M600.381 298.263V318.955C600.381 318.955 592.135 328.067 584.056 328.787C575.976 329.506 571.065 319.606 571.065 319.606V299.719L600.381 298.263Z" fill="#FFA681"/>
<path d="M600.381 298.263V307.444C594.956 313.662 585.333 315.204 571.082 313.028V299.702L600.381 298.263Z" fill="#F97853"/>
<path d="M621.517 245.13C621.152 253.163 620.406 263.218 618.912 271.268C618.547 273.272 618.116 275.157 617.652 276.852C613.438 292.097 602.886 318.236 573.355 307.359C560.314 302.546 554.259 287.558 551.571 272.296C549.746 261.933 549.464 251.468 549.597 243.982C549.746 236.343 553.778 229.371 560.215 225.603C577.652 215.394 596.034 219.197 608.145 224.01C616.557 227.35 621.949 235.863 621.517 245.13Z" fill="#FFA681"/>
<path d="M586.08 259.741V261.368C586.08 264.657 587.324 267.74 589.58 270.052C591.803 272.331 594.74 273.581 597.875 273.581H598.257C600.978 273.53 603.433 272.399 605.59 270.224C607.763 268.048 608.991 264.914 608.991 261.642V259.707C608.991 259.176 608.892 258.662 608.709 258.182C608.51 257.6 608.178 257.103 607.763 256.675C607.017 255.904 605.972 255.424 604.827 255.424H590.211C588.552 255.424 587.125 256.418 586.461 257.874C586.212 258.405 586.063 258.987 586.063 259.604C586.08 259.672 586.08 259.707 586.08 259.741ZM587.805 259.741C587.805 258.353 588.9 257.223 590.244 257.223H604.86C606.204 257.223 607.299 258.336 607.299 259.741V261.676C607.299 264.468 606.254 267.123 604.412 268.973C602.571 270.806 600.497 271.765 598.24 271.817H597.892C595.221 271.817 592.716 270.755 590.808 268.802C588.883 266.832 587.822 264.194 587.822 261.385V259.741H587.805Z" fill="#403657"/>
<path d="M556.814 259.741V261.368C556.814 264.657 558.058 267.74 560.315 270.052C562.538 272.33 565.474 273.581 568.61 273.581H569.008C571.712 273.529 574.184 272.399 576.341 270.224C578.515 268.048 579.759 264.914 579.759 261.642V259.707C579.759 259.672 579.759 259.655 579.759 259.621C579.759 259.039 579.626 258.49 579.41 257.977C578.763 256.469 577.303 255.407 575.611 255.407H560.995C559.717 255.407 558.556 256.007 557.793 256.949C557.428 257.411 557.146 257.959 556.996 258.542C556.864 258.97 556.814 259.347 556.814 259.741ZM558.539 259.741C558.539 258.353 559.634 257.223 560.978 257.223H575.595C576.938 257.223 578.033 258.336 578.033 259.741V261.676C578.033 264.468 576.972 267.123 575.147 268.973C573.322 270.806 571.231 271.765 568.975 271.817H568.626C565.955 271.817 563.45 270.755 561.559 268.802C559.634 266.832 558.573 264.194 558.573 261.385V259.741H558.539Z" fill="#403657"/>
<path d="M619.427 254.739C614.466 254.517 610.916 255.99 609.522 256.709C609.124 256.897 608.079 257.6 608.046 257.634L608.859 259.141C608.875 259.141 610.02 258.422 610.468 258.216C611.845 257.548 614.898 256.229 619.443 256.503V254.739H619.427Z" fill="#403657"/>
<path d="M587.241 259.809L587.805 258.131C587.705 258.096 585.283 257.24 582.629 257.24C579.792 257.24 577.983 258.131 577.9 258.182L578.647 259.775C578.664 259.775 580.206 259.021 582.629 259.021C584.985 259.021 587.224 259.809 587.241 259.809Z" fill="#403657"/>
<path d="M550.775 255.167V256.949C554.342 257.257 557.643 258.902 557.693 258.919L558.456 257.326C558.257 257.223 554.723 255.459 550.775 255.167Z" fill="#403657"/>
<path d="M570.352 262.019C570.352 264.229 569.257 266.01 567.896 266.01C566.536 266.01 565.441 264.211 565.441 262.019C565.441 259.809 566.536 258.028 567.896 258.028C569.24 258.028 570.352 259.809 570.352 262.019Z" fill="#403657"/>
<path d="M599.186 262.019C599.186 264.229 598.091 266.01 596.731 266.01C595.37 266.01 594.275 264.211 594.275 262.019C594.275 259.809 595.37 258.028 596.731 258.028C598.075 258.028 599.186 259.809 599.186 262.019Z" fill="#403657"/>
<path d="M559.883 249.738C559.883 249.738 570.136 245.558 578.033 249.07L577.37 252.855C577.37 252.855 568.825 250.885 560.447 254.105C559.916 252.375 559.203 251.536 559.883 249.738Z" fill="#403657"/>
<path d="M606.785 249.738C606.785 249.738 596.532 245.558 588.635 249.07L589.298 252.855C589.298 252.855 597.842 250.885 606.221 254.105C606.735 252.375 607.448 251.536 606.785 249.738Z" fill="#403657"/>
<path d="M583.823 278.788C585.433 278.788 587.025 278.137 587.274 278.034C587.755 277.829 587.988 277.264 587.788 276.75C587.589 276.253 587.042 276.013 586.544 276.219C585.681 276.578 583.624 277.144 582.728 276.596C582.562 276.493 582.314 276.27 582.264 275.688C581.915 272.262 582.828 260.751 582.844 260.632C582.894 260.083 582.496 259.621 581.982 259.57C581.451 259.518 581.003 259.929 580.953 260.46C580.92 260.94 580.024 272.262 580.389 275.876C580.522 277.229 581.219 277.932 581.766 278.274C582.363 278.651 583.093 278.788 583.823 278.788Z" fill="#F97853"/>
<path d="M572.011 283.772C572.791 287.815 575.379 295.249 584.089 295.249C592.815 295.249 595.271 288.449 596.117 283.772H572.011Z" fill="white"/>
<path d="M583.972 300.387C586.444 300.387 588.518 299.103 588.618 299.051C589.066 298.777 589.215 298.161 588.933 297.698C588.668 297.236 588.07 297.082 587.622 297.373C587.606 297.39 585.88 298.435 583.972 298.435C582.214 298.435 580.522 297.39 580.505 297.373C580.057 297.082 579.476 297.236 579.194 297.698C578.912 298.161 579.062 298.76 579.51 299.051C579.593 299.086 581.65 300.387 583.972 300.387Z" fill="#F97853"/>
<path d="M554.524 265.89C553.811 261.831 553.098 256.606 553.612 253.917C554.541 249.172 558.34 246.38 557.079 241.807C555.818 237.216 560.497 232.301 563.948 231.478C567.399 230.656 575.462 232.42 583.392 228.532C590.957 224.815 604.13 227.47 606.27 232.489C608.859 238.57 605.341 239.135 612.426 245.712C615.246 248.333 611.895 255.133 611.413 259.552C611.198 261.591 611.165 262.584 611.248 264.76L611.281 265.873H619.759C620.688 259.021 621.235 251.45 621.517 245.113C621.949 235.846 616.557 227.333 608.162 223.993C596.051 219.18 577.668 215.377 560.231 225.586C553.794 229.354 549.763 236.326 549.63 243.965C549.514 249.892 549.68 257.72 550.659 265.873H554.524V265.89Z" fill="#403657"/>
<path d="M615.992 269.658C615.959 267.363 616.125 265.085 616.507 262.824C617.038 259.741 617.9 256.949 620.953 255.664C623.408 254.636 626.03 254.602 627.904 257.463C632.5 264.503 627.374 286.427 616.109 281.34L615.992 269.658Z" fill="#FFA681"/>
<path d="M618.315 274.968C618.73 274.883 619.045 274.523 619.078 274.078C619.576 267.432 625.399 263.578 625.466 263.526C625.913 263.235 626.046 262.636 625.764 262.173C625.482 261.711 624.901 261.574 624.454 261.865C624.188 262.036 617.751 266.267 617.187 273.923C617.154 274.471 617.535 274.934 618.066 274.985C618.132 275.002 618.232 274.985 618.315 274.968Z" fill="#F97853"/>
<path d="M624.072 270.481C624.238 270.446 624.404 270.361 624.553 270.224C624.935 269.847 624.935 269.23 624.57 268.836C624.503 268.768 623.043 267.243 620.505 266.644C619.991 266.524 619.476 266.849 619.36 267.38C619.244 267.911 619.559 268.442 620.074 268.562C622.048 269.025 623.193 270.189 623.193 270.207C623.442 270.446 623.773 270.549 624.072 270.481Z" fill="#F97853"/>
<path d="M633.91 333.052C619.991 354.823 566.752 430.104 554.74 438.839C539.095 450.23 496.457 466.417 471.986 483.288C463.674 489.027 483.317 505.248 483.317 505.248C483.317 505.248 542.994 487.93 569.854 470.219C577.452 465.218 609.074 432.502 629.232 403.503C636.133 393.568 647.365 379.762 648.991 365.083C650.866 348.194 645.723 339.15 633.91 333.052Z" fill="#7846D1"/>
<path d="M528.378 529.039H362.505C360.381 529.039 358.672 527.258 358.672 525.082V511.431C358.672 509.238 360.398 507.474 362.505 507.474H528.378C530.501 507.474 532.21 509.256 532.21 511.431V525.082C532.21 527.258 530.501 529.039 528.378 529.039Z" fill="#1A0B42"/>
<path d="M358.689 529.039L326.072 402.903C324.247 395.812 329.406 388.875 336.507 388.875H408.295C413.139 388.875 417.386 392.197 418.697 397.011L454.616 529.039H358.689Z" fill="#403657"/>
<path d="M418.714 397.011L454.334 527.96H462.529L426.909 397.011C425.582 392.198 421.351 388.857 416.507 388.857H408.311C413.139 388.857 417.386 392.198 418.714 397.011Z" fill="#1A0B42"/>
<path d="M400.248 464.601C402.106 472.925 397.096 479.657 389.033 479.657C380.97 479.657 372.924 472.908 371.065 464.601C369.207 456.276 374.218 449.545 382.281 449.545C390.344 449.528 398.39 456.276 400.248 464.601Z" fill="#614C6E"/>
<path d="M622.695 64.4557C616.656 64.4557 611.745 59.3856 611.745 53.1507C611.745 46.9158 616.656 41.8457 622.695 41.8457C628.734 41.8457 633.645 46.9158 633.645 53.1507C633.645 59.3856 628.734 64.4557 622.695 64.4557ZM622.695 45.3914C618.547 45.3914 615.179 48.8685 615.179 53.1507C615.179 57.4329 618.547 60.91 622.695 60.91C626.843 60.91 630.21 57.4329 630.21 53.1507C630.21 48.8685 626.843 45.3914 622.695 45.3914Z" fill="#7846D1"/>
<path d="M662.131 104.143C656.092 104.143 651.181 99.0728 651.181 92.838C651.181 86.6031 656.092 81.533 662.131 81.533C668.17 81.533 673.081 86.6031 673.081 92.838C673.081 99.0728 668.17 104.143 662.131 104.143ZM662.131 85.0786C657.983 85.0786 654.615 88.5558 654.615 92.838C654.615 97.1201 657.983 100.597 662.131 100.597C666.278 100.597 669.646 97.1201 669.646 92.838C669.646 88.5558 666.278 85.0786 662.131 85.0786Z" fill="#9C78ED"/>
<path d="M675.669 140.901C674.723 140.901 673.943 140.113 673.943 139.12V131.292C673.943 130.316 674.706 129.511 675.669 129.511C676.614 129.511 677.394 130.299 677.394 131.292V139.12C677.377 140.096 676.614 140.901 675.669 140.901Z" fill="#7846D1"/>
<path d="M675.669 154.587C674.723 154.587 673.943 153.799 673.943 152.806V144.978C673.943 144.002 674.706 143.197 675.669 143.197C676.614 143.197 677.394 143.985 677.394 144.978V152.806C677.377 153.799 676.614 154.587 675.669 154.587Z" fill="#7846D1"/>
<path d="M686.303 143.83H679.501C678.555 143.83 677.776 143.042 677.776 142.049C677.776 141.073 678.539 140.268 679.501 140.268H686.303C687.249 140.268 688.029 141.056 688.029 142.049C688.012 143.042 687.249 143.83 686.303 143.83Z" fill="#7846D1"/>
<path d="M671.836 143.83H665.034C664.088 143.83 663.309 143.042 663.309 142.049C663.309 141.073 664.072 140.268 665.034 140.268H671.836C672.782 140.268 673.562 141.056 673.562 142.049C673.545 143.042 672.782 143.83 671.836 143.83Z" fill="#7846D1"/>
<path d="M615.179 97.0518C614.234 97.0518 613.454 96.2638 613.454 95.2704V87.4425C613.454 86.4662 614.217 85.6611 615.179 85.6611C616.125 85.6611 616.905 86.4491 616.905 87.4425V95.2704C616.888 96.2638 616.125 97.0518 615.179 97.0518Z" fill="#5B23A9"/>
<path d="M615.179 110.755C614.234 110.755 613.454 109.967 613.454 108.974V101.146C613.454 100.169 614.217 99.3643 615.179 99.3643C616.125 99.3643 616.905 100.152 616.905 101.146V108.974C616.888 109.95 616.125 110.755 615.179 110.755Z" fill="#5B23A9"/>
<path d="M625.814 99.9978H619.012C618.066 99.9978 617.286 99.2099 617.286 98.2165C617.286 97.2401 618.05 96.4351 619.012 96.4351H625.814C626.76 96.4351 627.539 97.223 627.539 98.2165C627.523 99.1928 626.76 99.9978 625.814 99.9978Z" fill="#5B23A9"/>
<path d="M611.347 99.9978H604.545C603.599 99.9978 602.819 99.2099 602.819 98.2165C602.819 97.2401 603.583 96.4351 604.545 96.4351H611.347C612.293 96.4351 613.072 97.223 613.072 98.2165C613.056 99.1928 612.293 99.9978 611.347 99.9978Z" fill="#5B23A9"/>
<path d="M114.276 12.5381C114.276 6.30327 119.187 1.23315 125.226 1.23315C131.265 1.23315 136.176 6.30327 136.176 12.5381C136.176 18.773 131.265 23.8431 125.226 23.8431C119.187 23.8431 114.276 18.773 114.276 12.5381ZM117.71 12.5381C117.71 16.8203 121.078 20.2975 125.226 20.2975C129.374 20.2975 132.741 16.8203 132.741 12.5381C132.741 8.25595 129.374 4.77881 125.226 4.77881C121.078 4.76168 117.71 8.25595 117.71 12.5381Z" fill="#7846D1"/>
<path d="M70.2778 55.6514C70.2778 49.4166 75.1886 44.3464 81.2276 44.3464C87.2666 44.3464 92.1774 49.4166 92.1774 55.6514C92.1774 61.8863 87.2666 66.9564 81.2276 66.9564C75.1886 66.9564 70.2778 61.8863 70.2778 55.6514ZM73.7121 55.6514C73.7121 59.9336 77.08 63.4108 81.2276 63.4108C85.3753 63.4108 88.7432 59.9336 88.7432 55.6514C88.7432 51.3692 85.3753 47.8921 81.2276 47.8921C77.08 47.875 73.7121 51.3692 73.7121 55.6514Z" fill="#9C78ED"/>
<path d="M47.4989 71.5127C48.4445 71.5127 49.2243 70.7248 49.2243 69.7313V61.9035C49.2243 60.9271 48.4611 60.1221 47.4989 60.1221C46.5532 60.1221 45.7734 60.91 45.7734 61.9035V69.7313C45.7734 70.7248 46.5532 71.5127 47.4989 71.5127Z" fill="#7846D1"/>
<path d="M47.4989 85.2158C48.4445 85.2158 49.2243 84.4279 49.2243 83.4344V75.6066C49.2243 74.6302 48.4611 73.8252 47.4989 73.8252C46.5532 73.8252 45.7734 74.6131 45.7734 75.6066V83.4344C45.7734 84.4108 46.5532 85.2158 47.4989 85.2158Z" fill="#7846D1"/>
<path d="M36.8643 74.4588H43.6665C44.6121 74.4588 45.3919 73.6709 45.3919 72.6774C45.3919 71.7011 44.6287 70.896 43.6665 70.896H36.8643C35.9187 70.896 35.1389 71.6839 35.1389 72.6774C35.1389 73.6537 35.9187 74.4588 36.8643 74.4588Z" fill="#7846D1"/>
<path d="M51.3314 74.4588H58.1335C59.0792 74.4588 59.859 73.6709 59.859 72.6774C59.859 71.7011 59.0958 70.896 58.1335 70.896H51.3314C50.3857 70.896 49.606 71.6839 49.606 72.6774C49.606 73.6537 50.3857 74.4588 51.3314 74.4588Z" fill="#7846D1"/>
<path d="M87.1007 11.3735C88.0463 11.3735 88.8261 10.5856 88.8261 9.59211V1.78139C88.8095 0.787924 88.0463 0 87.1007 0C86.155 0 85.3752 0.787924 85.3752 1.78139V9.59211C85.3752 10.5856 86.155 11.3735 87.1007 11.3735Z" fill="#5B23A9"/>
<path d="M87.1007 25.0593C88.0463 25.0593 88.8261 24.2714 88.8261 23.2779V15.4672C88.8261 14.4908 88.0629 13.6858 87.1007 13.6858C86.155 13.6858 85.3752 14.4737 85.3752 15.4672V23.295C85.3752 24.2714 86.155 25.0593 87.1007 25.0593Z" fill="#5B23A9"/>
<path d="M76.4661 14.3025H83.2683C84.214 14.3025 84.9937 13.5146 84.9937 12.5211C84.9937 11.5277 84.2305 10.7397 83.2683 10.7397H76.4661C75.5205 10.7397 74.7407 11.5277 74.7407 12.5211C74.7407 13.5146 75.5039 14.3025 76.4661 14.3025Z" fill="#5B23A9"/>
<path d="M90.9332 14.3025H97.7353C98.681 14.3025 99.4608 13.5146 99.4608 12.5211C99.4608 11.5277 98.6976 10.7397 97.7353 10.7397H90.9332C89.9875 10.7397 89.2078 11.5277 89.2078 12.5211C89.2078 13.5146 89.9709 14.3025 90.9332 14.3025Z" fill="#5B23A9"/>
<path d="M536.888 24.5456V58.9916C536.888 63.5479 533.305 67.2305 528.908 67.2305H468.336L450.053 73.9964C448.178 74.6987 446.37 72.7803 447.1 70.8618L454.018 52.4142V24.5456C454.018 19.9894 457.602 16.3067 462.015 16.3067H528.925C533.305 16.2896 536.888 19.9894 536.888 24.5456Z" fill="#9C78ED"/>
<g opacity="0.5">
<path d="M524.114 34.2918H468.552C467.341 34.2918 466.345 33.2813 466.345 32.0137C466.345 30.7633 467.324 29.7356 468.552 29.7356H524.114C525.325 29.7356 526.32 30.7462 526.32 32.0137C526.32 33.2641 525.341 34.2918 524.114 34.2918Z" fill="#E0D5F8"/>
<path d="M524.114 43.4557H468.552C467.341 43.4557 466.345 42.4451 466.345 41.1775C466.345 39.9271 467.324 38.8994 468.552 38.8994H524.114C525.325 38.8994 526.32 39.91 526.32 41.1775C526.32 42.4279 525.341 43.4557 524.114 43.4557Z" fill="#E0D5F8"/>
<path d="M524.114 52.6197H468.552C467.341 52.6197 466.345 51.6091 466.345 50.3416C466.345 49.0912 467.324 48.0635 468.552 48.0635H524.114C525.325 48.0635 526.32 49.0741 526.32 50.3416C526.32 51.592 525.341 52.6197 524.114 52.6197Z" fill="#E0D5F8"/>
</g>
<path d="M715.552 541.92V543.153C715.552 550.245 709.978 556.017 703.093 556.017H57.0053C50.1202 556.017 44.5458 550.262 44.5458 543.153V541.92C44.5458 534.829 50.1202 529.056 57.0053 529.056H703.093C709.978 529.056 715.552 534.812 715.552 541.92Z" fill="#5B23A9"/>
<path d="M715.552 541.92V542.537H44.5458V541.92C44.5458 534.829 50.1202 529.056 57.0053 529.056H703.093C709.978 529.056 715.552 534.812 715.552 541.92Z" fill="#7846D1"/>
</g>
<defs>
<clipPath id="clip0_114_2015">
<rect width="767" height="556" fill="white"/>
</clipPath>
</defs>
</svg>
