<svg width="201" height="39" viewBox="0 0 201 39" fill="none" xmlns="http://www.w3.org/2000/svg">
<path d="M36.8524 0.280762L36.8524 37.9165" stroke="#590070" stroke-width="0.788367"/>
<mask id="mask0_178_144" style="mask-type:luminance" maskUnits="userSpaceOnUse" x="0" y="0" width="38" height="14">
<path d="M0.149902 0.274658H37.1343V13.7164H0.149902V0.274658Z" fill="white"/>
</mask>
<g mask="url(#mask0_178_144)">
<path d="M37.1343 13.1492H36.4568V0.963823H0.82736V13.1492H0.149902V0.274658H37.1343V13.1492Z" fill="black"/>
</g>
<mask id="mask1_178_144" style="mask-type:luminance" maskUnits="userSpaceOnUse" x="0" y="24" width="38" height="15">
<path d="M0.317749 24.6453H37.3022V38.0321H0.317749V24.6453Z" fill="white"/>
</mask>
<g mask="url(#mask1_178_144)">
<path d="M0.317749 25.1638H0.995207V37.3431H36.6247V25.1638H37.3022V38.0323H0.317749V25.1638Z" fill="#590070"/>
</g>
<path d="M12.8357 25.6306C11.8585 25.6306 11.0012 25.3622 10.2698 24.8255C9.53237 24.2889 8.96282 23.5448 8.56714 22.5812L9.91006 21.9469C10.1139 22.63 10.4736 23.1667 10.9892 23.557C11.5168 23.9473 12.0983 24.1425 12.7398 24.1425C13.6331 24.1425 14.3105 23.868 14.7782 23.313C15.2398 22.7459 15.4736 21.9469 15.4736 20.9223V10.7495H17.0563V20.9223C17.0563 22.4043 16.6727 23.557 15.9053 24.3864C15.1499 25.2159 14.1307 25.6306 12.8357 25.6306Z" fill="black"/>
<path d="M23.2353 25.6306C22.258 25.6306 21.4007 25.3622 20.6693 24.8255C19.9319 24.2889 19.3624 23.5448 18.9667 22.5812L20.3096 21.9469C20.5134 22.63 20.8731 23.1667 21.3887 23.557C21.9163 23.9473 22.4978 24.1425 23.1393 24.1425C24.0326 24.1425 24.7101 23.868 25.1777 23.313C25.6393 22.7459 25.8731 21.9469 25.8731 20.9223V10.7495H27.4559V20.9223C27.4559 22.4043 27.0722 23.557 26.3048 24.3864C25.5494 25.2159 24.5302 25.6306 23.2353 25.6306Z" fill="black"/>
<path d="M46.4655 26.7356C45.4104 26.7356 44.4811 26.449 43.6837 25.8818C42.8984 25.2963 42.2929 24.4852 41.8612 23.4423L43.3001 22.7592C43.5219 23.4911 43.9116 24.0704 44.4751 24.4913C45.0507 24.9182 45.6801 25.1255 46.3696 25.1255C47.3408 25.1255 48.0782 24.8267 48.5758 24.2229C49.0674 23.6069 49.3192 22.747 49.3192 21.637V10.6592H51.0219V21.637C51.0219 23.2471 50.6142 24.5035 49.7989 25.3939C48.9835 26.2904 47.8684 26.7356 46.4655 26.7356Z" fill="black"/>
<path d="M63.5852 15.5869V26.3696H62.0505V24.5644C61.6788 25.2657 61.1931 25.8024 60.5876 26.1744C59.9941 26.5465 59.3047 26.7355 58.5253 26.7355C57.7879 26.7355 57.0984 26.577 56.4629 26.272C55.8394 25.9671 55.3418 25.5158 54.9761 24.9303C54.6044 24.3326 54.4246 23.6251 54.4246 22.8079V15.5869H55.9593V22.1004C55.9593 24.2472 56.9006 25.3206 58.7891 25.3206C59.8742 25.3206 60.6895 24.9303 61.2351 24.1496C61.7747 23.3568 62.0505 22.2956 62.0505 20.9783V15.5869H63.5852Z" fill="black"/>
<path d="M71.4902 15.2209C72.2396 15.2209 72.929 15.3795 73.5525 15.6845C74.176 15.9772 74.6676 16.4285 75.0394 17.0262C75.4051 17.63 75.5909 18.3374 75.5909 19.1486V26.3696H74.0561V19.856C74.0561 17.7093 73.1209 16.6359 71.2504 16.6359C70.1593 16.6359 69.3439 17.0384 68.8043 17.8312C68.2588 18.6119 67.989 19.6609 67.989 20.9782V26.3696H66.4542V15.5869H67.989V17.3677C68.3367 16.6847 68.8103 16.1602 69.4039 15.782C70.0094 15.41 70.7048 15.2209 71.4902 15.2209Z" fill="black"/>
<path d="M79.4671 26.3697V15.587H81.0019V26.3697H79.4671ZM80.2345 13.489C79.8808 13.489 79.587 13.3671 79.3472 13.1231C79.1194 12.8792 79.0115 12.5803 79.0115 12.2205C79.0115 11.879 79.1194 11.5984 79.3472 11.3667C79.587 11.1227 79.8808 11.0007 80.2345 11.0007C80.5702 11.0007 80.858 11.1227 81.0978 11.3667C81.3376 11.5984 81.4575 11.8912 81.4575 12.2449C81.4575 12.5864 81.3376 12.8792 81.0978 13.1231C80.858 13.3671 80.5702 13.489 80.2345 13.489Z" fill="black"/>
<path d="M89.3075 26.7355C88.3003 26.7355 87.395 26.4915 86.5977 26.0036C85.7943 25.5157 85.1648 24.8327 84.7032 23.9544C84.2536 23.064 84.0317 22.0638 84.0317 20.9538C84.0317 19.8499 84.2536 18.868 84.7032 18.002C85.1468 17.1238 85.7644 16.4407 86.5497 15.9528C87.3471 15.4649 88.2524 15.2209 89.2596 15.2209C90.2787 15.2209 91.19 15.4649 91.9934 15.9528C92.7907 16.4407 93.4142 17.1238 93.8639 18.002C94.3255 18.8802 94.5593 19.8743 94.5593 20.9782C94.5593 22.0882 94.3315 23.0762 93.8878 23.9544C93.4382 24.8327 92.8147 25.5157 92.0173 26.0036C91.232 26.4915 90.3267 26.7355 89.3075 26.7355ZM89.2596 25.3206C89.991 25.3206 90.6385 25.1376 91.202 24.7595C91.7775 24.3874 92.2152 23.8751 92.5209 23.2226C92.8387 22.5578 93.0006 21.8077 93.0006 20.9782C93.0006 20.1488 92.8387 19.4108 92.5209 18.7583C92.2152 18.0935 91.7775 17.5751 91.202 17.197C90.6385 16.8249 89.991 16.6359 89.2596 16.6359C88.5521 16.6359 87.9226 16.8249 87.3651 17.197C86.8015 17.5751 86.3639 18.0874 86.0461 18.7339C85.7224 19.3864 85.5665 20.1244 85.5665 20.9538C85.5665 21.8016 85.7224 22.5578 86.0461 23.2226C86.3639 23.8751 86.8015 24.3874 87.3651 24.7595C87.9226 25.1376 88.5521 25.3206 89.2596 25.3206Z" fill="black"/>
<path d="M101.945 15.2209C102.311 15.2209 102.652 15.2697 102.976 15.3673V16.8066C102.67 16.6481 102.328 16.5627 101.945 16.5627C101.285 16.5627 100.68 16.7517 100.122 17.1238C99.5587 17.5019 99.1151 18.0386 98.7793 18.7339C98.4436 19.4352 98.2757 20.2586 98.2757 21.1978V26.3696H96.741V15.5869H98.2757V17.758C98.6714 16.9469 99.187 16.3187 99.8105 15.8796C100.446 15.4405 101.159 15.2209 101.945 15.2209Z" fill="black"/>
<path d="M113.198 26.7355C112.173 26.7355 111.268 26.5159 110.488 26.0768C109.721 25.6255 109.127 24.9912 108.714 24.174L110.105 23.4909C110.662 24.7107 111.759 25.3206 113.39 25.3206C114.169 25.3206 114.817 25.1742 115.332 24.8815C115.842 24.5887 116.1 24.1374 116.1 23.5153C116.1 22.881 115.89 22.4114 115.476 22.1004C115.057 21.7955 114.331 21.6003 113.294 21.5149C111.855 21.3868 110.812 21.0514 110.177 20.5147C109.553 19.978 109.241 19.2645 109.241 18.3679C109.241 17.3799 109.589 16.6054 110.296 16.0504C111.016 15.5015 111.987 15.2209 113.222 15.2209C115.332 15.2209 116.759 16.0687 117.515 17.758L116.124 18.4411C115.866 17.8251 115.488 17.3677 114.997 17.075C114.517 16.7822 113.894 16.6359 113.126 16.6359C112.341 16.6359 111.741 16.7822 111.328 17.075C110.908 17.3677 110.704 17.7824 110.704 18.3191C110.704 18.8253 110.92 19.2401 111.352 19.5633C111.795 19.8743 112.563 20.0756 113.654 20.1732C114.997 20.2891 115.992 20.6245 116.651 21.1734C117.323 21.7101 117.659 22.4297 117.659 23.3202C117.659 24.052 117.449 24.6802 117.035 25.1986C116.633 25.7048 116.088 26.089 115.404 26.3452C114.733 26.6013 113.996 26.7355 113.198 26.7355Z" fill="black"/>
<path d="M128.485 26.7356C127.429 26.7356 126.5 26.449 125.703 25.8818C124.917 25.2963 124.312 24.4852 123.88 23.4423L125.319 22.7592C125.541 23.4911 125.931 24.0704 126.494 24.4913C127.07 24.9182 127.699 25.1255 128.389 25.1255C129.36 25.1255 130.097 24.8267 130.595 24.2229C131.086 23.6069 131.338 22.747 131.338 21.637V10.6592H133.041V21.637C133.041 23.2471 132.633 24.5035 131.818 25.3939C131.003 26.2904 129.887 26.7356 128.485 26.7356Z" fill="black"/>
<path d="M140.904 26.7355C139.897 26.7355 138.991 26.4915 138.194 26.0036C137.391 25.5157 136.761 24.8327 136.299 23.9544C135.85 23.064 135.628 22.0638 135.628 20.9538C135.628 19.8499 135.85 18.868 136.299 18.002C136.743 17.1238 137.361 16.4407 138.146 15.9528C138.943 15.4649 139.849 15.2209 140.856 15.2209C141.875 15.2209 142.786 15.4649 143.59 15.9528C144.387 16.4407 145.01 17.1238 145.46 18.002C145.922 18.8802 146.156 19.8743 146.156 20.9782C146.156 22.0882 145.928 23.0762 145.484 23.9544C145.034 24.8327 144.411 25.5157 143.614 26.0036C142.828 26.4915 141.923 26.7355 140.904 26.7355ZM140.856 25.3206C141.587 25.3206 142.235 25.1376 142.798 24.7595C143.374 24.3874 143.811 23.8751 144.117 23.2226C144.435 22.5578 144.597 21.8077 144.597 20.9782C144.597 20.1488 144.435 19.4108 144.117 18.7583C143.811 18.0935 143.374 17.5751 142.798 17.197C142.235 16.8249 141.587 16.6359 140.856 16.6359C140.148 16.6359 139.519 16.8249 138.961 17.197C138.398 17.5751 137.96 18.0874 137.642 18.7339C137.319 19.3864 137.163 20.1244 137.163 20.9538C137.163 21.8016 137.319 22.5578 137.642 23.2226C137.96 23.8751 138.398 24.3874 138.961 24.7595C139.519 25.1376 140.148 25.3206 140.856 25.3206Z" fill="black"/>
<path d="M157.642 15.5869V26.3696H156.107V24.5644C155.735 25.2657 155.25 25.8024 154.644 26.1744C154.05 26.5465 153.361 26.7355 152.582 26.7355C151.844 26.7355 151.155 26.577 150.519 26.272C149.896 25.9671 149.398 25.5158 149.033 24.9303C148.661 24.3326 148.481 23.6251 148.481 22.8079V15.5869H150.016V22.1004C150.016 24.2472 150.957 25.3206 152.845 25.3206C153.931 25.3206 154.746 24.9303 155.292 24.1496C155.831 23.3568 156.107 22.2956 156.107 20.9783V15.5869H157.642Z" fill="black"/>
<path d="M165.714 15.2209C166.08 15.2209 166.422 15.2697 166.746 15.3673V16.8066C166.44 16.6481 166.098 16.5627 165.714 16.5627C165.055 16.5627 164.449 16.7517 163.892 17.1238C163.328 17.5019 162.885 18.0386 162.549 18.7339C162.213 19.4352 162.045 20.2586 162.045 21.1978V26.3696H160.511V15.5869H162.045V17.758C162.441 16.9469 162.957 16.3187 163.58 15.8796C164.216 15.4405 164.929 15.2209 165.714 15.2209Z" fill="black"/>
<path d="M173.232 15.2209C173.981 15.2209 174.671 15.3795 175.294 15.6845C175.918 15.9772 176.409 16.4285 176.781 17.0262C177.147 17.63 177.332 18.3374 177.332 19.1486V26.3696H175.798V19.856C175.798 17.7093 174.862 16.6359 172.992 16.6359C171.901 16.6359 171.085 17.0384 170.546 17.8312C170 18.6119 169.731 19.6609 169.731 20.9782V26.3696H168.196V15.5869H169.731V17.3677C170.078 16.6847 170.552 16.1602 171.145 15.782C171.751 15.41 172.446 15.2209 173.232 15.2209Z" fill="black"/>
<path d="M184.926 15.2209C185.885 15.2209 186.748 15.4588 187.516 15.9284C188.283 16.4041 188.883 17.0506 189.314 17.88C189.758 18.6973 189.986 19.6121 189.986 20.6367C189.986 20.9294 189.974 21.149 189.962 21.2954H181.233C181.293 22.4053 181.646 23.3567 182.288 24.1496C182.941 24.9302 183.829 25.3206 184.95 25.3206C185.861 25.3206 186.61 25.1498 187.204 24.8083C187.809 24.4545 188.289 23.9666 188.643 23.3446L189.866 24.174C189.368 24.9729 188.715 25.6011 187.899 26.0524C187.084 26.5037 186.113 26.7355 184.998 26.7355C183.972 26.7355 183.061 26.4915 182.264 26.0036C181.46 25.5157 180.831 24.8327 180.369 23.9544C179.92 23.0762 179.698 22.0882 179.698 20.9782C179.698 19.8743 179.92 18.8802 180.369 18.002C180.813 17.1238 181.43 16.4407 182.216 15.9528C183.013 15.4649 183.918 15.2209 184.926 15.2209ZM188.451 20.0024C188.289 18.8802 187.911 18.0447 187.324 17.4897C186.748 16.9225 185.945 16.6359 184.926 16.6359C183.948 16.6359 183.151 16.9652 182.528 17.6117C181.904 18.246 181.502 19.0449 181.329 20.0024H188.451Z" fill="black"/>
<path d="M199.561 15.5869H201L195.269 30.9803H193.734L195.412 26.5892L191.048 15.5869H192.679L196.18 24.5156L199.561 15.5869Z" fill="black"/>
<mask id="mask2_178_144" style="mask-type:luminance" maskUnits="userSpaceOnUse" x="104" y="10" width="5" height="8">
<path d="M104.34 10.2458H108.849V17.5827H104.34V10.2458Z" fill="white"/>
</mask>
<g mask="url(#mask2_178_144)">
<path d="M106.595 10.252C105.354 10.252 104.34 11.2948 104.34 12.5756C104.34 13.8563 106.559 17.54 106.595 17.5705C106.595 17.5705 108.855 13.8563 108.855 12.5756C108.855 11.2948 107.842 10.252 106.595 10.252ZM106.595 11.3863C107.2 11.3863 107.686 11.8925 107.686 12.5085C107.686 13.1245 107.2 13.6307 106.595 13.6307C105.995 13.6307 105.51 13.1245 105.51 12.5085C105.51 11.8925 105.995 11.3863 106.595 11.3863Z" fill="#590070"/>
</g>
<path d="M36.403 0.280762L36.403 37.9165" stroke="#590070" stroke-width="0.788367"/>
</svg>
