<svg width="89" height="89" viewBox="0 0 89 89" fill="none" xmlns="http://www.w3.org/2000/svg">
<path d="M44.5 3.56C44.5 1.59387 46.0965 -0.0148124 48.0563 0.142289C56.6629 0.83219 64.9116 4.01478 71.7744 9.3381C79.5778 15.391 85.1459 23.8678 87.602 33.4333C90.058 42.9988 89.2622 53.1095 85.3401 62.1731C81.4179 71.2366 74.5922 78.738 65.938 83.4956C57.2838 88.2533 47.2929 89.997 37.5387 88.4521C27.7845 86.9072 18.8213 82.1615 12.0609 74.9623C5.30046 67.7632 1.12688 58.5198 0.197492 48.6878C-0.619872 40.041 1.11283 31.3711 5.14196 23.7347C6.05946 21.9957 8.27316 21.5097 9.93322 22.5632V22.5632C11.5933 23.6168 12.0682 25.8102 11.1773 27.563C7.98 33.8532 6.61729 40.9447 7.2859 48.0178C8.06659 56.2766 11.5724 64.0411 17.2512 70.0884C22.9299 76.1356 30.459 80.1221 38.6525 81.4198C46.846 82.7175 55.2384 81.2528 62.508 77.2563C69.7775 73.2599 75.5111 66.9588 78.8057 59.3454C82.1003 51.732 82.7687 43.239 80.7056 35.204C78.6426 27.1689 73.9653 20.0485 67.4105 14.964C61.7967 10.6095 55.079 7.96033 48.0548 7.28937C46.0976 7.10241 44.5 5.52613 44.5 3.56V3.56Z" fill="url(#paint0_angular_271_1409)"/>
<path d="M27.9 38.36H36.14L31.26 52H29.88L34.28 39.76H27.9V38.36ZM37.2359 38.36H45.4759L40.5959 52H39.2159L43.6159 39.76H37.2359V38.36ZM49.1719 52.18L48.0519 51.62L56.6519 37.96L57.7319 38.54L49.1719 52.18ZM49.0919 45.14C48.5319 45.14 48.0252 44.9933 47.5719 44.7C47.1319 44.3933 46.7852 43.98 46.5319 43.46C46.2919 42.9267 46.1719 42.32 46.1719 41.64C46.1719 40.68 46.4385 39.8933 46.9719 39.28C47.5185 38.6667 48.2119 38.36 49.0519 38.36C49.8919 38.36 50.5785 38.6667 51.1119 39.28C51.6585 39.8933 51.9319 40.68 51.9319 41.64C51.9319 42.3067 51.8119 42.9067 51.5719 43.44C51.3319 43.9733 50.9919 44.3933 50.5519 44.7C50.1252 44.9933 49.6385 45.14 49.0919 45.14ZM49.0119 43.94C49.5185 43.94 49.9319 43.7333 50.2519 43.32C50.5852 42.8933 50.7519 42.3467 50.7519 41.68C50.7519 41.0533 50.5852 40.54 50.2519 40.14C49.9319 39.74 49.5185 39.54 49.0119 39.54C48.5185 39.54 48.1185 39.74 47.8119 40.14C47.5052 40.5267 47.3519 41.0267 47.3519 41.64C47.3519 42.32 47.5052 42.8733 47.8119 43.3C48.1185 43.7267 48.5185 43.94 49.0119 43.94ZM57.0919 52C56.5319 52 56.0252 51.8533 55.5719 51.56C55.1319 51.2533 54.7852 50.84 54.5319 50.32C54.2919 49.7867 54.1719 49.18 54.1719 48.5C54.1719 47.54 54.4385 46.7533 54.9719 46.14C55.5185 45.5267 56.2119 45.22 57.0519 45.22C57.8919 45.22 58.5785 45.5267 59.1119 46.14C59.6585 46.7533 59.9319 47.54 59.9319 48.5C59.9319 49.1667 59.8119 49.7667 59.5719 50.3C59.3319 50.8333 58.9919 51.2533 58.5519 51.56C58.1252 51.8533 57.6385 52 57.0919 52ZM57.0119 50.8C57.5185 50.8 57.9319 50.5933 58.2519 50.18C58.5852 49.7533 58.7519 49.2067 58.7519 48.54C58.7519 47.9133 58.5852 47.4 58.2519 47C57.9319 46.6 57.5185 46.4 57.0119 46.4C56.5185 46.4 56.1185 46.6 55.8119 47C55.5052 47.3867 55.3519 47.8867 55.3519 48.5C55.3519 49.18 55.5052 49.7333 55.8119 50.16C56.1185 50.5867 56.5185 50.8 57.0119 50.8Z" fill="black"/>
<defs>
<radialGradient id="paint0_angular_271_1409" cx="0" cy="0" r="1" gradientUnits="userSpaceOnUse" gradientTransform="translate(44.8134 44.5) rotate(-90) scale(44.5)">
<stop stop-color="#00C2FF"/>
<stop offset="0.510797" stop-color="#8044FF"/>
<stop offset="1" stop-color="#DB00FF"/>
</radialGradient>
</defs>
</svg>
