<svg width="89" height="89" viewBox="0 0 89 89" fill="none" xmlns="http://www.w3.org/2000/svg">
<path d="M89 44.5C89 69.0767 69.0767 89 44.5 89C19.9233 89 0 69.0767 0 44.5C0 19.9233 19.9233 0 44.5 0C69.0767 0 89 19.9233 89 44.5ZM7.12 44.5C7.12 65.1444 23.8556 81.88 44.5 81.88C65.1444 81.88 81.88 65.1444 81.88 44.5C81.88 23.8556 65.1444 7.12 44.5 7.12C23.8556 7.12 7.12 23.8556 7.12 44.5Z" fill="#C2C0E1"/>
<path d="M44.5 3.56C44.5 1.59387 46.0965 -0.0148124 48.0563 0.142289C56.6629 0.83219 64.9116 4.01478 71.7744 9.3381C79.5778 15.391 85.1459 23.8678 87.602 33.4333C90.058 42.9988 89.2622 53.1095 85.3401 62.1731C81.4179 71.2366 74.5922 78.738 65.938 83.4956C57.2838 88.2533 47.2929 89.997 37.5387 88.4521C27.7845 86.9072 18.8213 82.1615 12.0609 74.9623C5.30046 67.7632 1.12688 58.5198 0.197492 48.6878C-0.619872 40.041 1.11283 31.3711 5.14196 23.7347C6.05946 21.9957 8.27316 21.5097 9.93322 22.5632V22.5632C11.5933 23.6168 12.0682 25.8102 11.1773 27.563C7.98 33.8532 6.61729 40.9447 7.2859 48.0178C8.06659 56.2766 11.5724 64.0411 17.2512 70.0884C22.9299 76.1356 30.459 80.1221 38.6525 81.4198C46.846 82.7175 55.2384 81.2528 62.508 77.2563C69.7775 73.2599 75.5111 66.9588 78.8057 59.3454C82.1003 51.732 82.7687 43.239 80.7056 35.204C78.6426 27.1689 73.9653 20.0485 67.4105 14.964C61.7967 10.6095 55.079 7.96033 48.0548 7.28937C46.0976 7.10241 44.5 5.52613 44.5 3.56V3.56Z" fill="url(#paint0_angular_264_1025)"/>
<path d="M38.8 38.36H40.16V52H38.8V40.6L35.56 43.8L34.8 43.04L38.8 38.36ZM42.9859 38.36H51.2259L46.3459 52H44.9659L49.3659 39.76H42.9859V38.36Z" fill="black"/>
<defs>
<radialGradient id="paint0_angular_264_1025" cx="0" cy="0" r="1" gradientUnits="userSpaceOnUse" gradientTransform="translate(44.8134 44.5) rotate(-90) scale(44.5)">
<stop stop-color="#00C2FF"/>
<stop offset="0.510797" stop-color="#8044FF"/>
<stop offset="1" stop-color="#DB00FF"/>
</radialGradient>
</defs>
</svg>
