<svg width="1440" height="1273" viewBox="0 0 1440 1273" fill="none" xmlns="http://www.w3.org/2000/svg">
<path d="M1330.69 104.793C1289.64 257.112 1327.74 552.722 1440 605M829.341 99.5169C850.32 293.293 917.57 393.146 1078.55 164.623C1101.74 143.751 1128.38 122.158 1156.18 102.727" stroke="#7760BF" stroke-width="4" stroke-linecap="round" stroke-dasharray="15 15"/>
<path d="M415.322 962.856C625.789 1041.94 1029.7 1126.32 961.604 831.15C975.932 700.259 1055.66 467.441 1259.94 583.299C1423.08 634.95 1687.85 639.607 1441.79 245.029" stroke="#7760BF" stroke-width="4" stroke-linecap="round" stroke-dasharray="15 15"/>
<path d="M-2.73992 962.806C24.7885 1120.16 320.29 964.565 415.26 962.806" stroke="#7760BF" stroke-width="4" stroke-linecap="round" stroke-dasharray="15 15"/>
<path d="M1143.85 473C1131.82 473 1122 482.12 1122 493.32C1122 504.52 1143.5 536.733 1143.85 537C1143.85 537 1165.76 504.52 1165.76 493.32C1165.76 482.12 1155.94 473 1143.85 473ZM1143.85 482.92C1149.72 482.92 1154.43 487.347 1154.43 492.733C1154.43 498.12 1149.72 502.547 1143.85 502.547C1138.04 502.547 1133.33 498.12 1133.33 492.733C1133.33 487.347 1138.04 482.92 1143.85 482.92Z" fill="#590070"/>
<path d="M414.852 884C402.822 884 393 893.12 393 904.32C393 915.52 414.503 947.733 414.852 948C414.852 948 436.761 915.52 436.761 904.32C436.761 893.12 426.94 884 414.852 884ZM414.852 893.92C420.721 893.92 425.429 898.347 425.429 903.733C425.429 909.12 420.721 913.547 414.852 913.547C409.04 913.547 404.333 909.12 404.333 903.733C404.333 898.347 409.04 893.92 414.852 893.92Z" fill="#590070"/>
</svg>
